<?xml version="1.0" encoding="UTF-8" standalone="no"?>
<svg
   width="217.1676"
   height="90"
   fill="none"
   version="1.1"
   id="svg39"
   sodipodi:docname="ineos-logo.svg"
   inkscape:version="1.2.2 (732a01da63, 2022-12-09, custom)"
   xmlns:inkscape="http://www.inkscape.org/namespaces/inkscape"
   xmlns:sodipodi="http://sodipodi.sourceforge.net/DTD/sodipodi-0.dtd"
   xmlns="http://www.w3.org/2000/svg"
   xmlns:svg="http://www.w3.org/2000/svg">
  <sodipodi:namedview
     id="namedview45"
     pagecolor="#ffffff"
     bordercolor="#000000"
     borderopacity="0.25"
     inkscape:showpageshadow="2"
     inkscape:pageopacity="0.0"
     inkscape:pagecheckerboard="0"
     inkscape:deskcolor="#d1d1d1"
     showgrid="false"
     inkscape:zoom="4.2481168"
     inkscape:cx="109.69567"
     inkscape:cy="80.270863"
     inkscape:window-width="1920"
     inkscape:window-height="1043"
     inkscape:window-x="0"
     inkscape:window-y="0"
     inkscape:window-maximized="1"
     inkscape:current-layer="svg39" />
  <defs
     id="defs43" />
  <g
     id="g327"
     transform="translate(-3.9484052)">
    <g
       fill="none"
       id="g235"
       transform="matrix(0.9,0,0,0.9,131.11601,0)">
      <path
         fill="#002147"
         d="M 100,0 H 0 v 100 h 100 z"
         id="path219" />
      <path
         fill="#ffffff"
         d="m 13.599,70.841 c -0.316,0.316 -0.886,0.57 -1.645,0.57 -0.632,0 -1.265,-0.19 -1.644,-0.633 -0.57,-0.57 -0.506,-1.202 -0.506,-1.834 v -3.669 h 0.822 v 3.795 c 0,0.443 0,0.886 0.316,1.265 0.253,0.253 0.633,0.38 1.076,0.38 0.442,0 0.759,-0.127 1.012,-0.38 0.38,-0.38 0.38,-0.885 0.38,-1.897 v -3.163 h 0.821 v 3.036 c -0.063,1.139 -0.063,1.961 -0.632,2.53 z m 6.325,0.443 -2.846,-4.744 0.063,4.744 h -0.759 v -6.009 h 0.822 l 2.783,4.807 v -4.807 h 0.759 v 6.009 z m 4.048,-6.009 H 23.15 v 6.009 h 0.822 z m 4.491,6.009 H 27.578 L 25.49,65.275 h 0.822 l 1.708,5.187 1.771,-5.187 h 0.759 z m 3.668,0 v -6.009 h 3.353 v 0.696 h -2.53 v 1.897 h 2.34 v 0.633 h -2.34 v 2.087 h 2.593 v 0.696 z m 8.539,0 -0.695,-1.581 c -0.443,-0.949 -0.633,-1.012 -1.392,-1.012 h -0.38 v 2.593 h -0.822 v -6.009 h 1.329 c 0.822,0 1.391,0 1.897,0.506 0.316,0.316 0.443,0.696 0.443,1.202 0,0.443 -0.127,0.759 -0.38,1.012 -0.19,0.253 -0.569,0.443 -0.948,0.506 0.19,0 0.38,0.126 0.506,0.253 0.19,0.19 0.316,0.443 0.442,0.822 l 0.76,1.708 z m -0.632,-5.06 c -0.316,-0.316 -0.76,-0.316 -1.202,-0.316 h -0.632 v 2.15 h 0.253 c 0.569,0 1.138,0 1.518,-0.38 0.19,-0.19 0.316,-0.442 0.316,-0.758 0,-0.253 -0.127,-0.57 -0.253,-0.696 z m 4.554,5.186 c -1.075,0 -1.771,-0.569 -1.834,-0.632 l 0.38,-0.57 c 0.126,0.064 0.695,0.507 1.39,0.507 0.76,0 1.14,-0.443 1.14,-1.012 0,-0.633 -0.76,-1.012 -1.392,-1.265 -0.76,-0.38 -1.455,-0.76 -1.455,-1.645 0,-0.949 0.759,-1.644 1.898,-1.644 1.075,0 1.644,0.569 1.707,0.632 l -0.38,0.506 c -0.062,-0.063 -0.568,-0.443 -1.264,-0.443 -0.633,0 -1.139,0.317 -1.139,0.886 0,0.57 0.506,0.759 1.139,1.075 0.506,0.253 1.708,0.696 1.708,1.834 0.063,1.012 -0.633,1.771 -1.898,1.771 z m 4.68,-6.135 H 48.45 v 6.009 h 0.822 z m 4.112,0.696 v 5.313 h -0.759 v -5.313 h -1.771 v -0.696 h 4.301 v 0.696 z m 5.25,2.973 v 2.34 h -0.759 v -2.34 l -1.898,-3.669 h 0.886 l 1.454,2.846 1.455,-2.846 h 0.759 z M 67.3,71.41 c -1.582,0 -2.72,-1.265 -2.72,-3.099 0,-1.834 1.138,-3.1 2.783,-3.1 1.58,0 2.72,1.266 2.72,3.1 -0.064,1.834 -1.202,3.1 -2.784,3.1 z m -0.064,-5.566 c -1.138,0 -1.897,0.95 -1.897,2.404 0,1.455 0.822,2.403 1.96,2.403 1.265,0 1.898,-1.075 1.898,-2.466 0,-1.392 -0.822,-2.34 -1.96,-2.34 z m 5.503,0.127 v 1.897 h 2.34 v 0.633 h -2.34 v 2.783 H 71.98 v -6.009 h 3.226 v 0.696 z M 21.948,83.112 c 0,3.858 -2.973,6.641 -6.641,6.641 -3.795,0 -6.641,-2.846 -6.641,-6.515 0,-3.858 2.972,-6.64 6.64,-6.64 3.733,0 6.642,2.845 6.642,6.514 z m -2.15,0.063 c 0,-3.479 -1.645,-5.819 -4.491,-5.819 -3.1,0 -4.49,2.846 -4.49,5.82 0,3.478 1.644,5.882 4.49,5.882 3.1,-0.064 4.49,-2.91 4.49,-5.883 z m 42.821,-0.063 c 0,3.858 -2.973,6.641 -6.642,6.641 -3.795,0 -6.641,-2.846 -6.641,-6.515 0,-3.858 2.973,-6.64 6.641,-6.64 3.732,0 6.642,2.845 6.642,6.514 z m -2.15,0.063 c 0,-3.479 -1.645,-5.819 -4.492,-5.819 -3.1,0 -4.49,2.846 -4.49,5.82 0,3.478 1.644,5.882 4.49,5.882 3.1,-0.064 4.491,-2.91 4.491,-5.883 z m 7.273,0 h 1.581 c 2.404,0 2.91,-1.455 2.91,-2.91 0,-1.075 -0.443,-1.96 -1.581,-2.466 -0.633,-0.253 -1.139,-0.253 -1.961,-0.253 h -0.949 v 5.63 z m 2.91,2.087 c -0.76,-1.075 -1.012,-1.391 -1.961,-1.391 h -0.949 v 4.238 c 0,0.38 0.127,0.506 0.506,0.632 l 1.455,0.253 V 89.5 H 64.01 v -0.506 l 1.329,-0.253 c 0.442,-0.126 0.506,-0.253 0.506,-0.632 v -9.93 c 0,-0.38 -0.127,-0.507 -0.506,-0.633 L 64.01,77.293 v -0.506 h 5.566 c 1.139,0 1.961,0.126 2.657,0.38 a 3.283,3.283 0 0 1 2.15,3.035 c 0,1.582 -1.138,2.847 -3.099,3.29 v 0.063 c 0.38,0.19 0.57,0.442 1.96,2.213 l 1.772,2.277 c 0.253,0.38 0.506,0.633 1.012,0.696 l 1.202,0.19 v 0.506 h -3.1 c -0.38,0 -0.506,-0.126 -0.822,-0.506 z M 45.794,81.214 h 0.569 v 4.175 h -0.57 l -0.252,-1.202 c -0.127,-0.443 -0.38,-0.632 -0.822,-0.632 h -3.037 v 4.617 c 0,0.38 0.127,0.506 0.506,0.633 l 1.455,0.253 v 0.506 h -5.692 v -0.506 l 1.328,-0.253 c 0.443,-0.127 0.506,-0.254 0.506,-0.633 v -9.93 c 0,-0.38 -0.127,-0.506 -0.506,-0.633 L 37.951,77.356 V 76.85 h 9.614 v 3.163 h -0.57 L 46.49,78.242 c -0.127,-0.506 -0.443,-0.696 -0.823,-0.696 h -3.921 v 5.313 h 3.036 c 0.443,0 0.696,-0.19 0.822,-0.633 z M 78.242,89.5 v -0.506 l 1.328,-0.253 c 0.443,-0.126 0.506,-0.253 0.506,-0.57 v -9.93 c 0,-0.379 -0.127,-0.505 -0.506,-0.632 L 78.242,77.356 V 76.85 h 5.945 c 1.645,0 2.783,0.19 3.732,0.633 2.404,1.075 3.479,3.478 3.479,5.755 0,2.277 -0.822,4.365 -2.973,5.503 -1.012,0.506 -2.34,0.76 -4.174,0.76 h -6.01 z M 81.91,77.546 v 10.69 c 0,0.442 0.127,0.569 0.57,0.569 h 1.58 c 1.456,0 2.594,-0.19 3.353,-0.76 1.328,-0.948 1.898,-2.593 1.898,-4.807 0,-2.15 -0.57,-4.174 -2.34,-5.186 -0.76,-0.443 -1.708,-0.506 -3.163,-0.506 z M 26.945,88.994 V 89.5 h -4.554 v -0.506 l 1.139,-0.253 c 0.442,-0.126 0.759,-0.253 1.012,-0.569 l 3.795,-4.87 -3.795,-5.124 c -0.253,-0.38 -0.57,-0.506 -0.95,-0.632 l -1.074,-0.253 v -0.506 h 5.629 v 0.506 l -1.202,0.19 c -0.38,0.063 -0.38,0.19 -0.126,0.442 l 2.846,3.985 h 0.063 l 2.91,-3.921 c 0.19,-0.253 0.19,-0.443 -0.127,-0.506 L 31.373,77.23 v -0.506 h 4.554 v 0.506 l -1.139,0.253 c -0.442,0.126 -0.759,0.253 -1.012,0.569 l -3.605,4.554 4.048,5.44 c 0.253,0.379 0.57,0.506 0.949,0.632 l 1.075,0.253 v 0.506 h -5.63 v -0.506 l 1.203,-0.19 c 0.379,-0.063 0.316,-0.19 0.126,-0.442 l -3.1,-4.302 H 28.779 L 25.617,88.3 c -0.19,0.253 -0.253,0.379 0.126,0.442 l 1.202,0.253 z m 43.58,-64.326 c 0,-0.76 -0.253,-1.328 -0.822,-1.645 C 69.386,22.833 68.88,22.77 68.311,22.77 H 64.2 v 8.35 h 4.49 c 1.013,0 1.645,0.252 1.708,1.138 h 0.127 z m 0.695,0 c 0,-0.76 0.254,-1.328 0.823,-1.645 0.316,-0.19 0.822,-0.253 1.391,-0.253 h 4.112 v 8.35 h -4.491 c -1.012,0 -1.645,0.252 -1.708,1.138 h -0.126 v -7.59 z"
         id="path221" />
      <path
         fill="#ffffff"
         d="m 78.432,23.276 v 8.919 h -6.515 l -0.064,0.19 c -0.126,0.253 -0.316,0.506 -0.948,0.506 -0.696,0 -0.886,-0.253 -0.95,-0.506 l -0.062,-0.19 H 63.44 v -8.919 h -0.696 v 0.253 l -0.506,-0.126 a 0.551,0.551 0 0 0 -0.506,-0.38 0.567,0.567 0 0 0 -0.569,0.57 c 0,0.316 0.253,0.569 0.57,0.569 a 0.483,0.483 0 0 0 0.316,-0.127 l 0.695,0.19 v 0.696 l -0.506,-0.063 a 0.476,0.476 0 0 0 -0.442,-0.317 c -0.317,0 -0.57,0.19 -0.57,0.506 0,0.317 0.19,0.57 0.506,0.57 0.19,0 0.317,-0.064 0.443,-0.19 l 0.633,0.126 v 0.696 h -0.506 c -0.127,-0.126 -0.253,-0.253 -0.443,-0.253 a 0.567,0.567 0 0 0 -0.57,0.57 c 0,0.316 0.254,0.569 0.57,0.569 0.19,0 0.316,-0.064 0.443,-0.19 h 0.569 v 0.759 h -0.506 a 0.574,0.574 0 0 0 -0.443,-0.19 0.567,0.567 0 0 0 -0.57,0.57 c 0,0.316 0.254,0.569 0.57,0.569 0.19,0 0.38,-0.127 0.443,-0.253 h 0.506 v 0.695 l -0.57,0.127 c -0.126,-0.127 -0.252,-0.19 -0.379,-0.19 a 0.567,0.567 0 0 0 -0.57,0.57 c 0,0.316 0.254,0.569 0.57,0.569 0.19,0 0.38,-0.127 0.506,-0.317 l 0.506,-0.063 v 0.696 l -0.632,0.19 a 0.483,0.483 0 0 0 -0.317,-0.127 0.567,0.567 0 0 0 -0.569,0.57 c 0,0.316 0.253,0.569 0.57,0.569 a 0.55,0.55 0 0 0 0.505,-0.38 l 0.443,-0.126 v 0.632 l -0.759,0.317 c -0.063,-0.064 -0.19,-0.064 -0.316,-0.064 -0.316,0 -0.57,0.253 -0.506,0.57 0,0.316 0.253,0.569 0.569,0.506 0.253,0 0.443,-0.19 0.506,-0.443 l 0.506,-0.19 v 0.633 h 6.768 c 0.316,0.506 0.759,0.695 1.518,0.695 0.696,0 1.202,-0.253 1.518,-0.695 h 6.768 V 23.276 H 78.431 Z M 66.477,20.367 c -1.328,0 -2.467,0.19 -2.467,0.443 0,0.253 1.076,0.442 2.467,0.442 1.328,0 2.467,-0.19 2.467,-0.442 -0.063,-0.19 -1.139,-0.443 -2.467,-0.443 z m 3.353,-3.037 -1.392,1.013 v 0.126 l 0.316,0.127 c 0.063,0.063 0.063,0.063 0.063,0.126 l -0.885,0.76 h -0.063 l -0.633,-0.95 c -0.063,-0.063 0,-0.126 0.063,-0.126 l 0.443,-0.063 v -0.127 l -1.075,-1.581 h -0.19 l -1.075,1.581 v 0.127 l 0.443,0.063 c 0.063,0 0.063,0.063 0.063,0.127 l -0.633,0.948 H 65.212 L 64.39,18.722 c -0.064,-0.063 -0.064,-0.063 0.063,-0.126 l 0.316,-0.127 v -0.126 l -1.455,-1.012 -0.126,0.063 0.885,2.657 c 0.443,-0.19 1.455,-0.317 2.657,-0.317 1.202,0 2.214,0.127 2.657,0.317 l 0.885,-2.657 -0.443,-0.063 z m 1.011,20.874 c -1.328,0 -2.467,0.19 -2.467,0.442 0,0.253 1.076,0.443 2.467,0.443 1.329,0 2.467,-0.19 2.467,-0.443 0,-0.253 -1.075,-0.442 -2.467,-0.442 z m 3.416,-3.036 -1.392,1.012 v 0.126 l 0.316,0.127 c 0.064,0.063 0.064,0.063 0.064,0.126 l -0.886,0.76 h -0.063 l -0.633,-0.95 c -0.063,-0.063 0,-0.126 0.064,-0.126 l 0.442,-0.063 v -0.127 l -1.075,-1.581 h -0.19 l -1.075,1.581 v 0.127 l 0.443,0.063 c 0.063,0 0.063,0.063 0.063,0.126 l -0.632,0.95 h -0.064 l -0.822,-0.76 c -0.063,-0.063 -0.063,-0.063 0.063,-0.126 l 0.317,-0.127 V 36.18 l -1.455,-1.012 -0.127,0.063 0.886,2.656 c 0.442,-0.19 1.455,-0.316 2.656,-0.316 1.202,0 2.214,0.127 2.657,0.316 l 0.885,-2.656 z m 1.012,-14.801 c -1.328,0 -2.467,0.19 -2.467,0.443 0,0.253 1.075,0.442 2.467,0.442 1.328,0 2.467,-0.19 2.467,-0.442 0,-0.19 -1.139,-0.443 -2.467,-0.443 z m 3.415,-3.037 -1.391,1.013 v 0.126 l 0.316,0.127 c 0.063,0.063 0.063,0.063 0.063,0.126 l -0.885,0.76 h -0.063 l -0.633,-0.95 c -0.063,-0.063 0,-0.126 0.063,-0.126 l 0.443,-0.063 v -0.127 l -1.075,-1.581 h -0.19 l -1.075,1.581 v 0.127 l 0.442,0.063 c 0.064,0 0.064,0.063 0.064,0.127 l -0.633,0.948 h -0.063 l -0.822,-0.759 c -0.064,-0.063 -0.064,-0.063 0.063,-0.126 l 0.316,-0.127 v -0.126 l -1.454,-1.013 -0.126,0.063 0.885,2.657 c 0.443,-0.19 1.455,-0.317 2.657,-0.317 1.202,0 2.214,0.127 2.657,0.317 l 0.885,-2.657 -0.443,-0.063 z m -7.337,-7.147 c 0,0.253 -0.253,0.506 -0.506,0.506 -0.253,0 -0.506,-0.253 -0.506,-0.506 0,-0.253 0.253,-0.506 0.506,-0.506 0.253,0 0.506,0.253 0.506,0.506 z m 11.765,4.744 c 0,0.253 -0.253,0.506 -0.506,0.506 -0.253,0 -0.506,-0.253 -0.506,-0.506 0,-0.253 0.253,-0.506 0.506,-0.506 0.316,-0.063 0.57,0.19 0.506,0.506 z"
         id="path223" />
      <path
         fill="#0e2050"
         d="m 65.275,24.035 c 0.253,0 0.443,0.064 0.506,0.19 0.064,0.063 0.127,0.19 0.127,0.38 0,0.442 -0.38,0.632 -0.76,0.632 h -0.442 v -0.063 c 0.127,0 0.127,0 0.127,-0.253 v -0.633 c 0,-0.19 0,-0.19 -0.127,-0.253 h 0.57 z m -0.063,0.886 c 0,0.19 0.063,0.19 0.127,0.19 0.126,0 0.316,-0.19 0.316,-0.506 0,-0.38 -0.19,-0.506 -0.38,-0.506 h -0.063 v 0.821 z m 2.15,-0.316 c 0,0.38 -0.253,0.632 -0.632,0.632 -0.38,0 -0.633,-0.253 -0.633,-0.632 0,-0.317 0.19,-0.633 0.633,-0.633 0.38,0.063 0.632,0.253 0.632,0.633 z m -0.885,0 c 0,0.316 0.126,0.569 0.316,0.569 0.126,0 0.253,-0.127 0.253,-0.506 0,-0.38 -0.127,-0.57 -0.316,-0.57 -0.127,0 -0.253,0.19 -0.253,0.507 z m 2.53,-0.57 v 0.064 c -0.127,0 -0.127,0 -0.127,0.19 v 0.632 c 0,0.19 0,0.19 0.127,0.253 v 0.063 h -0.57 v -0.063 c 0.127,0 0.127,0 0.127,-0.253 v -0.633 l -0.38,0.95 h -0.126 l -0.316,-0.886 v 0.695 c 0,0.064 0.063,0.064 0.19,0.064 v 0.063 h -0.443 v -0.063 c 0.063,0 0.126,0 0.126,-0.064 v -0.696 c 0,-0.252 0,-0.252 -0.126,-0.252 v -0.064 h 0.443 l 0.316,0.76 0.253,-0.76 z m 0.569,0.885 c 0,0.19 0,0.19 0.127,0.254 v 0.063 h -0.57 v -0.063 c 0.127,0 0.127,0 0.127,-0.253 v -0.633 c 0,-0.19 0,-0.19 -0.127,-0.253 h 0.57 v 0.064 c -0.127,0 -0.127,0 -0.127,0.253 v 0.569 z m -2.973,2.531 h -0.126 l -0.696,-0.886 v 0.697 c 0,0.062 0.063,0.062 0.19,0.062 v 0.064 h -0.443 v -0.064 c 0.063,0 0.127,0 0.127,-0.063 v -0.696 c 0,-0.126 0,-0.19 -0.064,-0.19 0,-0.063 -0.063,-0.063 -0.126,-0.063 v -0.063 h 0.38 l 0.632,0.76 v -0.634 c 0,-0.063 -0.063,-0.063 -0.19,-0.063 v -0.063 h 0.443 v 0.063 c -0.063,0 -0.127,0 -0.127,0.064 z m 0.759,0 c -0.126,-0.316 -0.316,-0.759 -0.38,-0.949 -0.063,-0.126 -0.126,-0.19 -0.19,-0.19 v -0.063 h 0.57 v 0.063 H 67.3 c -0.063,0 -0.063,0 -0.063,0.064 0.063,0.126 0.19,0.442 0.253,0.632 0.063,-0.126 0.19,-0.506 0.19,-0.569 0.063,-0.127 0,-0.127 -0.064,-0.127 h -0.063 v -0.063 h 0.443 v 0.063 c -0.127,0 -0.127,0 -0.19,0.19 0,0 -0.253,0.57 -0.38,0.949 h -0.063 z m 0.823,-0.38 c 0.063,0.127 0.126,0.317 0.316,0.317 0.126,0 0.19,-0.064 0.19,-0.19 0,-0.127 -0.064,-0.19 -0.19,-0.19 -0.127,-0.063 -0.316,-0.19 -0.316,-0.38 0,-0.189 0.126,-0.379 0.442,-0.379 h 0.317 c 0,0.063 0,0.19 0.063,0.316 h -0.063 c -0.064,-0.126 -0.127,-0.253 -0.253,-0.253 -0.064,0 -0.19,0.064 -0.19,0.19 0,0.063 0.063,0.127 0.19,0.19 h 0.063 c 0.19,0.063 0.316,0.19 0.316,0.38 0,0.252 -0.19,0.379 -0.443,0.379 h -0.19 c -0.063,0 -0.063,-0.063 -0.126,-0.063 0,-0.064 -0.063,-0.19 -0.063,-0.317 z m -2.34,2.277 c 0,0.19 0,0.19 0.126,0.253 v 0.064 h -0.57 V 29.6 c 0.127,0 0.127,0 0.127,-0.253 v -0.632 c 0,-0.19 0,-0.19 -0.126,-0.253 h 0.57 v 0.063 c -0.127,0 -0.127,0 -0.127,0.253 z m 0.695,0 c 0,0.127 0,0.127 0.063,0.127 h 0.127 c 0.063,0 0.126,0 0.19,-0.063 0,-0.064 0.063,-0.064 0.063,-0.19 h 0.063 c 0,0.063 -0.063,0.253 -0.063,0.316 h -0.886 v -0.063 c 0.127,0 0.127,0 0.127,-0.253 v -0.633 c 0,-0.19 0,-0.19 -0.127,-0.253 v 0.127 h 0.57 v 0.063 c -0.127,0 -0.127,0 -0.127,0.253 v 0.57 z m 1.012,0 c 0,0.127 0,0.127 0.063,0.127 h 0.127 c 0.063,0 0.126,0 0.19,-0.063 0,-0.064 0.063,-0.064 0.063,-0.19 h 0.063 c 0,0.063 -0.063,0.253 -0.063,0.316 h -0.886 v -0.063 c 0.127,0 0.127,0 0.127,-0.253 v -0.633 c 0,-0.19 0,-0.19 -0.127,-0.253 v 0.127 h 0.57 v 0.063 c -0.127,0 -0.127,0 -0.127,0.253 v 0.57 z m 0.886,0.317 c -0.127,-0.317 -0.316,-0.76 -0.38,-0.949 -0.063,-0.127 -0.126,-0.19 -0.19,-0.19 v -0.063 h 0.57 v 0.063 h -0.063 c -0.064,0 -0.064,0 -0.064,0.063 0.064,0.127 0.19,0.443 0.253,0.633 0.064,-0.127 0.19,-0.506 0.19,-0.57 0.063,-0.126 0,-0.126 -0.063,-0.126 h -0.063 v -0.063 h 0.442 v 0.063 c -0.126,0 -0.126,0 -0.19,0.19 0,0 -0.252,0.57 -0.379,0.949 z m 5.06,-5.566 v 0.063 c -0.126,0 -0.127,0 -0.127,0.19 v 0.632 c 0,0.19 0,0.19 0.127,0.253 V 25.3 h -0.57 v -0.063 c 0.127,0 0.127,0 0.127,-0.253 v -0.632 l -0.38,0.948 h -0.126 l -0.316,-0.885 v 0.696 c 0,0.063 0.063,0.063 0.19,0.063 V 25.3 H 71.98 v -0.063 c 0.063,0 0.126,0 0.126,-0.063 v -0.696 c 0,-0.253 0,-0.253 -0.126,-0.253 v -0.063 h 0.443 l 0.316,0.759 0.253,-0.76 h 0.506 V 24.1 Z m 0.632,0.885 c 0,0.19 0,0.19 0.127,0.253 V 25.3 h -0.57 v -0.063 c 0.127,0 0.127,0 0.127,-0.253 v -0.632 c 0,-0.19 0,-0.19 -0.127,-0.253 v -0.064 h 0.57 v 0.064 c -0.127,0 -0.127,0 -0.127,0.253 z m 1.328,0.316 h -0.126 l -0.696,-0.885 v 0.696 c 0,0.063 0.063,0.063 0.19,0.063 V 25.3 h -0.443 v -0.063 c 0.063,0 0.127,0 0.127,-0.063 v -0.696 c 0,-0.126 0,-0.19 -0.064,-0.19 0,-0.063 -0.063,-0.063 -0.126,-0.063 v -0.063 h 0.38 l 0.632,0.759 v -0.633 c 0,-0.063 -0.063,-0.063 -0.19,-0.063 v -0.063 h 0.443 v 0.063 c -0.063,0 -0.127,0 -0.127,0.063 z m 0.822,-0.126 c 0.127,0 0.127,-0.063 0.127,-0.127 l -0.063,-0.19 h -0.316 l -0.063,0.19 c 0,0.064 0,0.127 0.063,0.127 h 0.063 V 25.3 h -0.443 v -0.063 c 0.064,0 0.127,0 0.19,-0.19 l 0.38,-0.948 h 0.126 l 0.127,0.316 c 0.063,0.19 0.126,0.443 0.253,0.632 0.063,0.19 0.063,0.19 0.19,0.19 V 25.3 h -0.57 v -0.126 h -0.063 z m -0.252,-0.38 h 0.253 l -0.127,-0.38 z m -2.53,2.404 c 0,0.19 0,0.19 0.19,0.253 v 0.063 h -0.633 v -0.063 c 0.127,0 0.19,0 0.19,-0.253 v -0.822 c -0.127,0 -0.19,0 -0.19,0.063 0,0 -0.063,0.063 -0.063,0.19 h -0.063 v -0.38 h 0.063 c 0,0.063 0.063,0.063 0.126,0.063 h 0.76 c 0.063,0 0.063,0 0.063,-0.063 h 0.063 v 0.38 h -0.063 c 0,-0.127 -0.064,-0.127 -0.064,-0.19 0,-0.063 -0.063,-0.063 -0.19,-0.063 h -0.19 v 0.822 z"
         id="path225" />
      <path
         fill="#0e2050"
         d="m 74.447,27.198 c 0,0.19 0,0.19 0.126,0.253 v 0.063 h -0.57 v -0.063 c 0.127,0 0.127,0 0.127,-0.253 v -0.633 c 0,-0.19 0,-0.19 -0.126,-0.253 v -0.063 h 0.57 v 0.063 c -0.127,0 -0.127,0 -0.127,0.253 z m 1.518,-0.316 c 0,0.38 -0.253,0.632 -0.633,0.632 -0.38,0 -0.632,-0.253 -0.632,-0.632 0,-0.317 0.19,-0.633 0.632,-0.633 0.38,0 0.633,0.253 0.633,0.633 z m -0.886,-0.064 c 0,0.317 0.127,0.57 0.316,0.57 0.127,0 0.253,-0.127 0.253,-0.506 0,-0.38 -0.126,-0.57 -0.316,-0.57 -0.126,0.064 -0.253,0.19 -0.253,0.506 z m -1.012,1.645 v 0.063 c -0.127,0 -0.127,0 -0.127,0.19 v 0.632 c 0,0.19 0,0.19 0.127,0.253 v 0.064 h -0.57 V 29.6 c 0.127,0 0.127,0 0.127,-0.253 v -0.632 l -0.38,0.949 h -0.126 l -0.316,-0.886 v 0.696 c 0,0.063 0.063,0.063 0.19,0.063 V 29.6 h -0.443 v -0.063 c 0.063,0 0.126,0 0.126,-0.063 v -0.696 c 0,-0.253 0,-0.253 -0.126,-0.253 v -0.063 h 0.443 l 0.316,0.759 0.253,-0.759 h 0.506 z m 0.253,0.317 c 0,-0.19 0,-0.19 -0.127,-0.254 v -0.063 h 0.886 v 0.316 h -0.063 c 0,-0.063 -0.064,-0.126 -0.064,-0.19 0,-0.063 -0.063,-0.063 -0.19,-0.063 -0.063,0 -0.063,0 -0.063,0.063 v 0.38 h 0.064 c 0.126,0 0.19,0 0.19,-0.127 h 0.063 v 0.443 h -0.064 c 0,-0.19 0,-0.19 -0.19,-0.19 H 74.7 v 0.317 c 0,0.126 0,0.126 0.064,0.126 h 0.126 c 0.063,0 0.127,0 0.19,-0.063 0,-0.063 0.063,-0.127 0.063,-0.19 h 0.063 c 0,0.063 -0.063,0.253 -0.063,0.316 h -0.949 v -0.063 c 0.127,0 0.127,0 0.127,-0.253 v -0.506 z m 1.518,0.821 c 0.127,0 0.127,-0.063 0.127,-0.126 l -0.064,-0.19 h -0.316 l -0.063,0.19 c 0,0.063 0,0.126 0.063,0.126 h 0.063 v 0.064 H 75.206 V 29.6 c 0.063,0 0.126,0 0.19,-0.19 l 0.379,-0.948 h 0.126 l 0.127,0.316 c 0.063,0.19 0.126,0.443 0.253,0.633 0.063,0.19 0.063,0.19 0.19,0.19 v 0.063 h -0.57 V 29.6 h -0.063 z m -0.253,-0.379 h 0.253 l -0.126,-0.38 z"
         id="path227" />
      <path
         fill="#ffffff"
         d="m 69.197,44.782 c 0,0.253 -0.253,0.506 -0.506,0.506 -0.253,0 -0.506,-0.253 -0.506,-0.506 0,-0.253 0.253,-0.506 0.506,-0.506 0.253,0 0.506,0.253 0.506,0.506 z m 4.933,0.822 c 0,0.253 -0.253,0.506 -0.506,0.506 -0.253,0 -0.506,-0.253 -0.506,-0.506 0,-0.253 0.253,-0.506 0.506,-0.506 0.316,0 0.506,0.253 0.506,0.506 z M 57.369,35.294 c 0.19,0 0.632,0.063 1.075,0.633 0.19,0.253 0.316,0.506 0.316,0.822 0,0.506 -0.253,0.759 -0.822,1.202 l -1.518,1.075 -0.443,-0.57 1.708,-1.201 c 0.19,-0.127 0.38,-0.316 0.38,-0.506 0,-0.127 0,-0.253 -0.127,-0.38 -0.19,-0.253 -0.38,-0.253 -0.506,-0.253 -0.19,0 -0.38,0.127 -0.696,0.38 l -1.581,0.822 -0.38,-0.57 1.582,-1.011 c 0.442,-0.316 0.695,-0.443 1.012,-0.443 z m -2.784,-1.391 2.151,-0.823 0.19,0.57 -3.163,1.201 -0.253,-0.569 1.645,-2.087 -2.088,0.696 -0.253,-0.633 3.226,-1.075 0.19,0.569 z m 1.126,-4.75 -3.377,0.514 0.105,0.688 3.377,-0.514 z m -0.113,-2.271 -3.479,1.075 v -0.759 l 2.657,-0.696 -2.53,-0.949 v -0.695 l 3.352,1.328 z m -2.973,-3.859 0.569,-2.024 0.569,0.19 -0.379,1.265 0.759,0.253 0.316,-1.202 0.57,0.127 -0.317,1.202 0.823,0.253 0.379,-1.329 0.569,0.19 -0.569,2.024 z m 5.186,-3.858 -1.012,-0.063 c -0.506,-0.063 -0.506,0.063 -0.632,0.316 l -0.063,0.063 1.201,0.633 -0.38,0.632 -2.972,-1.644 0.506,-0.886 c 0.253,-0.38 0.443,-0.822 1.075,-0.822 0.38,0 0.886,0.316 0.886,0.886 0,0.126 0,0.19 -0.063,0.316 0.126,-0.19 0.38,-0.253 0.632,-0.19 h 0.316 l 0.886,0.063 z m -2.53,-1.012 c -0.19,0.063 -0.253,0.19 -0.38,0.443 l -0.126,0.19 0.823,0.442 0.19,-0.253 c 0.126,-0.19 0.126,-0.316 0.126,-0.506 -0.063,-0.126 -0.127,-0.253 -0.253,-0.316 z m 4.61,-6.11 -0.556,0.418 2.054,2.729 0.556,-0.418 z m 3.297,-1.29 1.265,2.53 -0.632,0.316 -1.265,-2.53 -0.886,0.443 -0.253,-0.506 2.34,-1.202 0.253,0.506 z m 3.985,0.189 0.316,1.329 -0.696,0.189 -0.316,-1.328 -1.518,-1.771 0.696,-0.126 1.012,1.138 0.379,-1.518 0.696,-0.19 z m 12.334,1.202 1.075,0.696 -0.253,0.443 -1.075,-0.633 -0.759,1.265 -0.633,-0.379 1.771,-2.91 1.708,1.012 -0.253,0.506 -1.138,-0.632 z m 6.135,11.132 0.949,-1.012 -1.329,-0.316 -0.253,-0.759 2.024,0.569 1.265,-1.518 0.253,0.759 -0.885,0.949 1.265,0.316 0.19,0.696 -1.835,-0.506 -1.391,1.581 z m 3.289,2.404 -0.759,0.063 0.063,1.265 -0.569,0.063 -0.126,-1.265 -1.455,0.127 v -0.696 l 3.415,-0.316 0.127,2.087 -0.633,0.063 z"
         id="path229" />
      <path
         fill="#ffffff"
         d="M 91.335,27.388 C 91.398,16.129 82.29,6.894 71.031,6.768 a 20.363,20.363 0 0 0 -14.168,5.503 c -4.111,3.858 -6.452,9.108 -6.515,14.737 -0.063,6.768 3.226,13.03 8.729,16.888 0.506,2.214 2.53,3.795 4.87,3.795 a 5.13,5.13 0 0 0 1.96,-0.38 c 0.633,0.19 1.33,0.38 2.025,0.507 -0.19,0.57 -0.506,1.138 -0.822,1.644 l 0.506,0.506 c 0.126,-0.063 0.253,-0.126 0.379,-0.126 0.38,0 0.76,0.253 0.76,0.696 0,0.38 -0.254,0.759 -0.76,0.759 -0.316,0 -0.632,-0.127 -0.885,-0.57 0,0 -0.127,0.443 -0.127,0.95 0,1.517 1.645,3.162 3.858,3.92 2.214,-0.695 3.859,-2.403 3.859,-3.92 0,-0.507 -0.127,-0.95 -0.127,-0.95 -0.19,0.443 -0.57,0.57 -0.885,0.57 -0.506,0 -0.76,-0.38 -0.76,-0.76 0,-0.442 0.38,-0.695 0.76,-0.695 0.126,0 0.253,0.063 0.38,0.126 l 0.442,-0.442 c -0.19,-0.506 -0.38,-1.012 -0.506,-1.455 3.669,-0.506 6.768,-2.087 9.235,-4.618 5.123,-3.858 8.033,-9.677 8.096,-16.065 z M 64.01,47.122 c -2.34,0 -4.3,-1.898 -4.3,-4.301 0,-0.759 0.189,-1.455 0.505,-2.024 0.19,0.19 0.443,0.38 0.696,0.632 -0.19,0.443 -0.316,0.95 -0.316,1.455 0,1.265 0.632,2.34 1.897,3.1 0.696,0.442 1.518,0.822 2.34,1.138 -0.252,-0.063 -0.505,0 -0.822,0 z m 6.831,-6.262 c -0.822,0 -1.58,-0.063 -2.34,-0.19 -0.822,-1.707 -2.593,-2.783 -4.49,-2.783 -0.507,0 -0.95,0.064 -1.392,0.19 -3.353,-2.593 -5.377,-6.578 -5.377,-10.816 0,-7.527 6.136,-13.599 13.6,-13.599 7.463,0 13.598,6.136 13.598,13.6 0,7.463 -6.072,13.598 -13.599,13.598 z m 2.91,0.38 c -0.38,0.569 -0.57,1.328 -0.633,2.087 a 18.704,18.704 0 0 1 -3.352,-1.202 c 0.127,-0.316 0.443,-0.569 1.012,-0.569 h 0.127 c 0.948,-0.063 1.96,-0.127 2.846,-0.316 z m -4.364,0.19 c -0.127,0.126 -0.19,0.19 -0.253,0.316 -0.443,-0.19 -1.265,-0.57 -1.582,-0.76 0.443,0.19 1.455,0.443 1.835,0.443 z M 64.01,38.52 a 4.29,4.29 0 0 1 3.542,1.897 c -0.695,-0.19 -1.391,-0.379 -2.024,-0.695 a 3.752,3.752 0 0 0 -1.454,-0.317 c -1.139,0 -2.151,0.57 -2.784,1.392 -0.253,-0.127 -0.506,-0.316 -0.759,-0.443 0.76,-1.075 2.025,-1.834 3.48,-1.834 z m 9.614,10.816 c -0.759,0 -1.391,0.632 -1.391,1.391 0,0.886 0.632,1.392 1.391,1.392 h 0.317 c -0.253,1.075 -1.518,2.277 -3.1,2.846 -1.518,-0.506 -2.846,-1.708 -3.099,-2.846 h 0.316 c 0.823,0 1.392,-0.506 1.392,-1.392 0,-0.759 -0.57,-1.391 -1.392,-1.391 0.19,-0.38 0.443,-0.822 0.57,-1.265 0.948,0.19 1.834,0.253 2.656,0.253 0.696,0 1.328,-0.063 2.024,-0.127 0.063,0.317 0.316,0.95 0.38,1.139 z m -2.277,-1.708 c -2.72,0 -6.135,-0.949 -8.475,-2.277 -0.696,-0.443 -1.518,-1.202 -1.518,-2.467 0,-0.316 0.063,-0.632 0.19,-0.949 0.885,0.696 1.77,1.392 2.34,1.708 0.126,0.063 0.19,0.127 0.38,0.127 a 0.702,0.702 0 0 0 0.695,-0.696 c 0,-0.316 -0.126,-0.506 -0.443,-0.633 -0.506,-0.19 -1.518,-0.632 -2.593,-1.201 0.506,-0.633 1.265,-1.076 2.15,-1.076 0.38,0 0.76,0.064 1.139,0.253 l 0.759,0.443 c 2.34,1.455 8.412,5.124 15.75,3.226 -2.783,2.34 -6.2,3.542 -10.374,3.542 z m 11.449,-4.68 c -3.29,1.138 -6.325,1.075 -8.919,0.505 0.064,-1.138 0.506,-2.34 1.202,-2.53 5.883,-1.77 10.184,-7.273 10.184,-13.662 0,-7.906 -6.452,-14.295 -14.358,-14.295 -7.907,0 -14.358,6.326 -14.358,14.232 0,4.301 1.96,8.412 5.313,11.132 a 5.467,5.467 0 0 0 -1.961,1.645 c -0.253,-0.19 -0.443,-0.317 -0.696,-0.506 l -0.126,0.126 c 0.126,0.19 0.38,0.38 0.632,0.633 a 5.07,5.07 0 0 0 -0.696,2.53 v 0.19 C 54.017,39.216 51.043,33.27 51.107,27.008 51.17,21.568 53.384,16.445 57.369,12.713 61.1,9.235 65.908,7.337 71.03,7.4 c 10.88,0.064 19.671,9.045 19.608,19.924 -0.063,6.262 -2.91,11.892 -7.843,15.623 z"
         id="path231" />
      <path
         fill="#ffffff"
         d="m 59.962,16.13 c 0,0.315 -0.127,0.632 -0.38,0.885 -0.506,0.506 -1.012,0.569 -1.075,0.569 l -0.126,-0.57 c 0.063,0 0.442,-0.126 0.759,-0.379 0.126,-0.126 0.19,-0.253 0.19,-0.38 0,-0.126 -0.064,-0.379 -0.38,-0.379 -0.316,0 -0.822,0.443 -1.328,0.443 -0.19,0 -0.443,0 -0.633,-0.253 -0.19,-0.19 -0.316,-0.443 -0.316,-0.696 0,-0.253 0.126,-0.57 0.38,-0.822 0.442,-0.506 0.948,-0.57 1.011,-0.57 l 0.127,0.57 c -0.063,0 -0.443,0.063 -0.633,0.316 -0.126,0.126 -0.19,0.253 -0.19,0.38 0,0.126 0.064,0.316 0.317,0.316 0.253,0 0.885,-0.443 1.328,-0.443 0.253,0 0.38,0.063 0.633,0.253 0.19,0.19 0.316,0.443 0.316,0.76 z m 15.749,-3.417 c -0.885,0 -1.644,-0.632 -1.644,-1.644 0,-0.886 0.57,-1.898 1.708,-1.898 0.885,0 1.707,0.633 1.707,1.645 -0.063,0.696 -0.569,1.897 -1.77,1.897 z m 0.95,-2.024 c 0,-0.253 -0.064,-0.506 -0.19,-0.695 -0.127,-0.19 -0.38,-0.317 -0.696,-0.317 -0.633,0 -1.076,0.76 -1.076,1.392 0,0.57 0.38,0.949 0.95,0.949 0.695,0.063 1.011,-0.823 1.011,-1.329 z m 8.475,9.298 c -1.012,0 -1.581,-1.012 -1.581,-1.644 0,-1.012 1.075,-1.771 1.96,-1.771 0.95,0 1.645,0.885 1.645,1.708 -0.063,0.822 -1.012,1.707 -2.024,1.707 z m -0.063,-0.695 c 0.569,0 1.454,-0.506 1.454,-1.202 0,-0.506 -0.38,-0.886 -0.822,-0.886 -0.57,0 -1.391,0.506 -1.391,1.202 -0.127,0.38 0.19,0.886 0.759,0.886 z m 0.759,10.752 c 0,-0.822 0.569,-1.644 1.707,-1.644 0.949,0 1.898,0.569 1.898,1.644 0,0.886 -0.57,1.708 -1.708,1.708 -0.949,0 -1.897,-0.633 -1.897,-1.708 z m 1.96,0.949 c 0.633,0 1.076,-0.38 1.076,-0.886 0,-0.632 -0.76,-0.948 -1.329,-0.948 -0.759,0 -1.075,0.506 -1.075,0.948 0,0.633 0.886,0.886 1.328,0.886 z m -3.225,3.099 h 1.012 c 0.506,0 0.506,-0.126 0.632,-0.38 l 0.063,-0.062 -1.201,-0.57 0.316,-0.632 3.1,1.455 -0.38,0.885 c -0.253,0.57 -0.506,0.886 -1.076,0.886 -0.38,0 -0.885,-0.317 -0.885,-0.886 0,-0.063 0,-0.19 0.063,-0.253 -0.19,0.316 -0.632,0.253 -0.949,0.253 h -0.885 z m 1.96,0.38 c 0,0.253 0.19,0.443 0.443,0.443 0.19,0 0.38,-0.127 0.506,-0.38 l 0.127,-0.253 -0.823,-0.38 -0.126,0.317 c -0.127,0.063 -0.127,0.126 -0.127,0.253 z m -4.047,3.352 c 0,-0.696 0.316,-1.075 0.758,-1.581 l 0.443,-0.57 2.657,2.151 -0.57,0.76 c -0.316,0.442 -0.758,0.948 -1.518,0.948 -0.442,0 -0.822,-0.19 -1.075,-0.443 a 1.52,1.52 0 0 1 -0.696,-1.265 z m 1.77,1.012 c 0.38,0 0.57,-0.126 1.013,-0.632 l 0.126,-0.19 -1.771,-1.455 -0.19,0.253 c -0.19,0.253 -0.316,0.506 -0.316,0.76 0,0.315 0.19,0.632 0.506,0.885 0.19,0.316 0.443,0.38 0.632,0.38 z"
         id="path233" />
    </g>
  </g>
  <g
     id="g577"
     transform="translate(-60.052619,-16.920078)">
    <path
       d="M 180.96962,16.920078 H 60.052619 V 106.92008 H 180.96962 Z"
       fill="#6e273d"
       id="path460" />
    <path
       d="m 72.480619,64.567078 v 0.2846 c -0.399,0 -0.6841,0.1139 -0.7981,0.3416 -0.171,0.2277 -0.2281,0.6262 -0.2281,1.1385 v 5.8065 c 0,0.5692 0.0571,0.9108 0.2281,1.1385 0.171,0.2277 0.4561,0.3415 0.7981,0.3415 v 0.2847 h -3.36355 v -0.2847 c 0.39907,0 0.68412,-0.1138 0.85515,-0.3415 0.171,-0.2277 0.228,-0.5693 0.228,-1.1385 v -5.8634 c 0,-0.5693 -0.057,-0.9677 -0.228,-1.1955 -0.17103,-0.2277 -0.39907,-0.2846 -0.85515,-0.2846 v -0.2846 h 3.36355 z m 8.6655,0.2277 v -0.2846 h 2.8505 v 0.2846 c -0.4561,0 -0.7412,0.1139 -0.9122,0.3416 -0.171,0.2277 -0.285,0.5692 -0.285,1.1385 v 7.5712 h -0.2851 l -6.6131,-8.0835 v 6.4895 c 0,0.4554 0.114,0.797 0.285,0.9678 0.1711,0.1707 0.5131,0.2846 0.9122,0.2846 v 0.2846 h -2.7935 v -0.2846 c 0.4561,0 0.7412,-0.1139 0.9122,-0.3416 0.171,-0.2277 0.228,-0.6261 0.228,-1.2523 v -5.408 c 0,-0.5693 -0.114,-1.0247 -0.342,-1.2524 -0.2281,-0.2277 -0.5701,-0.3985 -1.0832,-0.4554 v -0.2846 h 2.3944 l 5.872,7.2865 v -5.408 c 0,-0.5692 -0.057,-0.9677 -0.2281,-1.1954 -0.171,-0.2846 -0.456,-0.3985 -0.9121,-0.3985 z m 10.7751,3.2448 h 0.285 v 2.277 h -0.285 c -0.1141,-0.3984 -0.2281,-0.6261 -0.3421,-0.74 -0.114,-0.1139 -0.4561,-0.1708 -0.9121,-0.1708 h -2.2804 v 3.3017 c 0,0.2277 0.057,0.3985 0.171,0.5124 0.114,0.1138 0.2851,0.1138 0.5131,0.1138 h 1.5963 c 0.5701,0 0.9691,-0.0569 1.1972,-0.1138 0.228,-0.057 0.399,-0.1708 0.5701,-0.3416 0.171,-0.1708 0.342,-0.4554 0.513,-0.8539 h 0.1711 l -0.4561,1.7078 h -6.6131 v -0.2846 c 0.399,0 0.6841,-0.1139 0.8551,-0.3416 0.114,-0.2277 0.2281,-0.5692 0.2281,-1.1385 v -5.6926 c 0,-0.5693 -0.057,-0.9677 -0.2281,-1.1385 -0.171,-0.2277 -0.399,-0.3416 -0.8551,-0.3416 v -0.2846 h 6.6701 v 1.537 h -0.171 c -0.114,-0.4554 -0.2281,-0.74 -0.3991,-0.8539 -0.171,-0.1708 -0.5701,-0.2277 -1.1402,-0.2277 h -2.6794 v 3.9848 h 2.6224 c 0.3421,0 0.5701,-0.0569 0.7411,-0.1708 0.057,-0.1138 0.1711,-0.3415 0.2281,-0.74 z m 3.6485,1.0816 c 0,-1.3662 0.4561,-2.5048 1.4252,-3.4156 0.9692,-0.9108 2.1094,-1.3662 3.534601,-1.3662 1.3683,0 2.5655,0.4554 3.4776,1.4232 0.9692,0.9108 1.4252,2.0493 1.4252,3.4155 0,1.3662 -0.456,2.5617 -1.4252,3.4725 -0.9692,0.9677 -2.1093,1.4232 -3.5346,1.4232 -1.368201,0 -2.565401,-0.4555 -3.534601,-1.4232 -0.9121,-0.9677 -1.3682,-2.1063 -1.3682,-3.5294 z m 1.4252,0.0569 c 0,1.3662 0.3421,2.4478 0.9692,3.3017 0.6271,0.8539 1.4822,1.2524 2.508401,1.2524 1.0832,0 1.9383,-0.4554 2.5654,-1.2524 0.6842,-0.8539 0.9692,-1.9355 0.9692,-3.1878 0,-1.3663 -0.342,-2.4478 -0.9692,-3.3017 -0.6271,-0.8539 -1.4822,-1.2524 -2.5084,-1.2524 -1.083201,0 -1.938301,0.3985 -2.622401,1.2524 -0.5701,0.74 -0.9122,1.8216 -0.9122,3.1878 z m 15.848301,-4.7818 h 0.2281 v 2.1632 h -0.2851 c -0.057,-0.6262 -0.285,-1.0816 -0.6271,-1.4231 -0.3991,-0.3416 -0.8551,-0.5124 -1.4252,-0.5124 -0.5131,0 -0.9122,0.1139 -1.1972,0.3985 -0.2851,0.2277 -0.4561,0.5693 -0.4561,1.0247 0,0.3985 0.114,0.74 0.3991,1.0816 0.228,0.3415 0.7981,0.74 1.6532,1.2524 0.9692,0.5692 1.6533,1.0815 1.9954,1.537 0.342,0.4554 0.5131,0.9108 0.5131,1.48 0,0.7401 -0.2851,1.3663 -0.7982,1.8786 -0.5131,0.5123 -1.1402,0.797 -1.8813,0.797 -0.3991,0 -0.9692,-0.1139 -1.5963,-0.3416 -0.285,-0.1139 -0.456,-0.1139 -0.513,-0.1139 -0.1711,0 -0.2851,0.1139 -0.3421,0.3416 h -0.285 v -2.5047 h 0.285 c 0,0.6831 0.228,1.2523 0.6841,1.6508 0.4561,0.3985 0.9692,0.6262 1.5393,0.6262 0.5701,0 1.0261,-0.1708 1.3682,-0.4554 0.3421,-0.2846 0.5131,-0.6831 0.5131,-1.1955 0,-0.3984 -0.114,-0.74 -0.3991,-1.0815 -0.285,-0.3416 -0.8551,-0.797 -1.7673,-1.3093 -0.7411,-0.4555 -1.1972,-0.797 -1.4252,-1.0816 -0.2281,-0.2847 -0.3991,-0.5693 -0.5131,-0.8539 -0.114,-0.2847 -0.171,-0.6262 -0.171,-1.0247 0,-0.74 0.228,-1.3093 0.6841,-1.7078 0.4561,-0.4554 1.0832,-0.6831 1.8243,-0.6831 0.3991,0 0.8551,0.0569 1.3682,0.2277 0.2281,0.0569 0.3991,0.1139 0.4561,0.1139 0.057,0 0.114,0 0.171,-0.057 -0.057,0 -0.057,-0.1138 0,-0.2277 z m -44.980051,16.9641 c 0,-1.2524 0.45607,-2.334 1.31122,-3.1879 0.85514,-0.8539 1.99533,-1.3093 3.30653,-1.3093 1.2542,0 2.3374,0.4554 3.2496,1.3093 0.9121,0.8539 1.3112,1.9355 1.3112,3.1879 0,1.2523 -0.4561,2.3339 -1.3682,3.2448 -0.9122,0.8538 -1.9954,1.3093 -3.2496,1.3093 -1.3112,0 -2.39439,-0.4555 -3.24953,-1.3093 -0.85515,-0.9109 -1.31122,-1.9925 -1.31122,-3.2448 z m 1.36823,0 c 0,1.2523 0.28505,2.277 0.91212,3.074 0.5701,0.7969 1.3683,1.1385 2.3374,1.1385 0.9692,0 1.7673,-0.3985 2.3944,-1.1954 0.6271,-0.797 0.9122,-1.7648 0.9122,-2.9602 0,-1.2524 -0.2851,-2.277 -0.9122,-3.074 -0.6271,-0.797 -1.3682,-1.1385 -2.3374,-1.1385 -1.0261,0 -1.8243,0.3985 -2.4514,1.1385 -0.57008,0.74 -0.85512,1.7647 -0.85512,3.0171 z m 16.19072,-3.131 -2.1664,2.7893 2.2234,3.0171 c 0.3991,0.5693 0.6841,0.9108 0.9121,1.0816 0.2281,0.1708 0.5131,0.2846 0.7982,0.3416 v 0.2277 h -3.4776 v -0.2277 c 0.4561,0 0.6841,-0.2277 0.6841,-0.6262 0,-0.2847 -0.114,-0.5124 -0.342,-0.797 l -1.5393,-2.1063 -1.6533,2.1632 c -0.285,0.3416 -0.3991,0.6262 -0.3991,0.8539 0,0.2846 0.2281,0.4554 0.6842,0.5124 v 0.2277 h -2.7365 v -0.2277 c 0.3421,0 0.5701,-0.057 0.7981,-0.2278 0.2281,-0.1707 0.4561,-0.3984 0.7412,-0.7969 l 2.2803,-2.9032 -2.1093,-2.8463 c -0.3421,-0.5124 -0.6841,-0.8539 -0.9122,-1.0247 -0.228,-0.2277 -0.513,-0.2846 -0.8551,-0.2846 v -0.2277 h 3.3066 v 0.2277 c -0.3991,0 -0.6272,0.1707 -0.6272,0.4554 0,0.1707 0.0571,0.3415 0.2281,0.5692 l 1.6533,2.2771 1.5962,-2.0494 c 0.2281,-0.3415 0.3991,-0.5692 0.3991,-0.7969 0,-0.2847 -0.228,-0.4554 -0.6841,-0.4554 v -0.2277 h 2.7364 v 0.2277 c -0.342,0 -0.6271,0.0569 -0.8551,0.1707 -0.114,0.057 -0.3421,0.2847 -0.6841,0.6832 z m 8.2663,3.3017 h -2.2804 v 2.5616 c 0,0.5124 0.0571,0.8539 0.2281,1.0816 0.114,0.1708 0.3991,0.2847 0.7981,0.2847 v 0.2277 h -3.1355 v -0.2277 c 0.3991,0 0.6271,-0.1139 0.7981,-0.2847 0.114,-0.1708 0.2281,-0.5692 0.2281,-1.0816 v -5.351 c 0,-0.5123 -0.057,-0.8539 -0.2281,-1.0816 -0.171,-0.2277 -0.399,-0.2846 -0.7981,-0.2846 v -0.2277 h 5.929 v 1.537 h -0.171 c -0.1141,-0.4554 -0.2281,-0.7401 -0.3421,-0.9109 -0.114,-0.1707 -0.5131,-0.2277 -1.0262,-0.2277 h -2.2804 v 3.5864 h 2.2804 c 0.2851,0 0.5131,-0.0569 0.6842,-0.2277 0.171,-0.1708 0.228,-0.3985 0.285,-0.797 h 0.171 v 2.4478 h -0.228 c 0,-0.6831 -0.3421,-1.0246 -0.9122,-1.0246 z m 3.8764,-0.1707 c 0,-1.2524 0.4561,-2.334 1.3112,-3.1879 0.8552,-0.8539 1.995401,-1.3093 3.306601,-1.3093 1.2542,0 2.3374,0.4554 3.2495,1.3093 0.9122,0.8539 1.3113,1.9355 1.3113,3.1879 0,1.2523 -0.4561,2.3339 -1.3683,3.2448 -0.9121,0.8538 -1.9953,1.3093 -3.2495,1.3093 -1.3112,0 -2.394401,-0.4555 -3.249601,-1.3093 -0.8551,-0.9109 -1.3112,-1.9925 -1.3112,-3.2448 z m 1.3112,0 c 0,1.2523 0.2851,2.277 0.9122,3.074 0.570101,0.7969 1.368201,1.1385 2.337401,1.1385 0.9691,0 1.7673,-0.3985 2.3944,-1.1954 0.6271,-0.797 0.9121,-1.7648 0.9121,-2.9602 0,-1.2524 -0.285,-2.277 -0.9121,-3.074 -0.6271,-0.797 -1.3683,-1.1385 -2.3374,-1.1385 -1.0262,0 -1.8243,0.3985 -2.451401,1.1385 -0.5701,0.74 -0.8552,1.7647 -0.8552,3.0171 z m 13.112201,0.3415 h -0.6842 v 2.3909 c 0,0.5123 0.0571,0.8539 0.2281,1.0816 0.171,0.2277 0.399,0.2846 0.7981,0.2846 v 0.2277 h -3.1355 v -0.2277 c 0.3991,0 0.6271,-0.1138 0.7981,-0.2846 0.114,-0.2277 0.2281,-0.5693 0.2281,-1.0816 v -5.408 c 0,-0.5123 -0.057,-0.8539 -0.1711,-1.0816 -0.114,-0.1708 -0.399,-0.2846 -0.7981,-0.2846 v -0.2277 h 3.5346 c 0.8551,0 1.5963,0.2277 2.1093,0.6262 0.5131,0.3984 0.7982,0.9677 0.7982,1.5939 0,1.0816 -0.5701,1.7647 -1.7673,2.1063 0.285,0.1707 0.5131,0.3984 0.7411,0.6831 0.2281,0.2846 0.5701,0.7969 0.9692,1.48 0.4561,0.7401 0.7981,1.2524 1.0832,1.4801 0.228,0.2277 0.513,0.3416 0.7981,0.3985 v 0.2277 h -1.7673 c -0.3421,-0.4554 -0.7981,-1.0816 -1.3112,-1.9355 -0.5701,-0.9108 -0.9692,-1.4801 -1.3112,-1.7078 -0.3991,-0.2277 -0.7412,-0.3415 -1.1402,-0.3415 z m 0.228,-4.3264 h -0.9122 v 3.9279 h 1.0832 c 0.6271,0 1.1402,-0.1708 1.4823,-0.5693 0.342,-0.3415 0.5131,-0.8538 0.5131,-1.4231 0,-0.5693 -0.2281,-1.0816 -0.6271,-1.4232 -0.3421,-0.2846 -0.9122,-0.5123 -1.5393,-0.5123 z m 6.8984,8.3112 v -0.2277 c 0.3421,0 0.6271,-0.1139 0.7411,-0.2847 0.1141,-0.2277 0.2281,-0.5692 0.2281,-1.0816 v -5.351 c 0,-0.5123 -0.057,-0.8539 -0.2281,-1.0816 -0.114,-0.2277 -0.399,-0.2846 -0.7411,-0.2846 v -0.2277 h 3.9907 c 1.4822,0 2.6794,0.3984 3.5346,1.2523 0.9121,0.8539 1.3112,1.8786 1.3112,3.1879 0,1.2524 -0.3991,2.277 -1.2542,3.0171 -0.8552,0.74 -1.9953,1.1385 -3.4776,1.1385 h -4.1047 z m 3.7626,-8.3112 h -1.6532 v 6.3757 c 0,0.6262 0.057,1.0246 0.228,1.2523 0.171,0.2278 0.4561,0.3416 0.8551,0.3416 h 0.9122 c 1.0832,0 1.8813,-0.3415 2.5084,-1.0247 0.6271,-0.6831 0.9122,-1.5939 0.9122,-2.7893 0,-1.2524 -0.3421,-2.2771 -1.0262,-3.0171 -0.6271,-0.7401 -1.5393,-1.1385 -2.7365,-1.1385 z m -50.681701,11.556 v 0.2277 c -0.3421,0 -0.6272,0.1138 -0.7412,0.2846 -0.114,0.2277 -0.228,0.5692 -0.228,1.0816 v 5.351 c 0,0.5124 0.057,0.8539 0.228,1.0816 0.114,0.1708 0.3991,0.2847 0.7412,0.2847 v 0.2277 h -3.13558 v -0.2277 c 0.39907,0 0.62711,-0.1139 0.79814,-0.2847 0.11402,-0.1708 0.22804,-0.5692 0.22804,-1.0816 v -5.351 c 0,-0.5124 -0.05701,-0.9108 -0.22804,-1.0816 -0.11402,-0.1708 -0.39907,-0.2846 -0.79814,-0.2846 v -0.2277 z m 7.5821,0.2846 v -0.2277 h 2.6225 v 0.2277 c -0.3991,0 -0.6841,0.1138 -0.8552,0.2846 -0.171,0.1708 -0.228,0.5693 -0.228,1.0816 v 7.0019 h -0.285 l -6.1571,-7.5142 v 6.0341 c 0,0.4554 0.114,0.7401 0.2851,0.9108 0.171,0.1708 0.456,0.2847 0.8551,0.2847 v 0.2277 h -2.6224 v -0.2277 c 0.399,0 0.6841,-0.1139 0.8551,-0.3416 0.171,-0.2277 0.2281,-0.6262 0.2281,-1.1385 v -5.0664 c 0,-0.5693 -0.1141,-0.9108 -0.2851,-1.1955 -0.171,-0.2277 -0.5131,-0.3984 -0.9692,-0.3984 v -0.2277 h 2.2234 l 5.4159,6.7172 v -5.0664 c 0,-0.5123 -0.057,-0.9108 -0.228,-1.0816 -0.171,-0.2277 -0.4561,-0.2846 -0.8552,-0.2846 z m 8.609,-0.3985 h 0.228 v 2.0494 h -0.2851 c -0.057,-0.5693 -0.285,-0.9678 -0.6271,-1.3093 -0.342,-0.3416 -0.7981,-0.4554 -1.3112,-0.4554 -0.4561,0 -0.8551,0.1138 -1.1402,0.3415 -0.285,0.2277 -0.399,0.5693 -0.399,0.9678 0,0.3415 0.114,0.6831 0.342,0.9677 0.2281,0.2846 0.7411,0.6831 1.5393,1.1385 0.9121,0.5693 1.5392,1.0247 1.8243,1.4232 0.285,0.3985 0.4561,0.8539 0.4561,1.4231 0,0.6831 -0.2281,1.2524 -0.7412,1.7078 -0.456,0.4554 -1.0831,0.74 -1.7103,0.74 -0.399,0 -0.9121,-0.1138 -1.4822,-0.3415 -0.228,-0.1139 -0.3991,-0.1139 -0.4561,-0.1139 -0.114,0 -0.228,0.1139 -0.342,0.3416 h -0.2851 v -2.334 h 0.2851 c 0,0.6262 0.228,1.1385 0.6271,1.537 0.399,0.3985 0.9121,0.5693 1.4252,0.5693 0.5131,0 0.9692,-0.1139 1.2542,-0.3985 0.3421,-0.2846 0.4561,-0.6262 0.4561,-1.1385 0,-0.3416 -0.114,-0.6831 -0.3991,-1.0247 -0.285,-0.3415 -0.7981,-0.74 -1.6532,-1.2523 -0.6842,-0.3985 -1.1402,-0.7401 -1.3683,-0.9678 -0.228,-0.2277 -0.399,-0.5123 -0.5131,-0.797 -0.114,-0.2846 -0.171,-0.6261 -0.171,-0.9677 0,-0.6831 0.228,-1.1954 0.6271,-1.5939 0.4561,-0.3985 1.0262,-0.6262 1.7103,-0.6262 0.3991,0 0.7981,0.0569 1.2542,0.2277 0.2281,0.0569 0.3421,0.1138 0.4561,0.1138 0.057,0 0.114,0 0.114,-0.0569 0.228,0 0.2851,-0.0569 0.2851,-0.1708 z m 7.5818,0.5693 h -1.3112 v 6.6034 c 0,0.5123 0.057,0.8539 0.171,1.0246 0.114,0.1708 0.3991,0.2847 0.7411,0.2847 v 0.2277 h -3.0215 v -0.2277 c 0.3991,0 0.6271,-0.1139 0.7982,-0.2847 0.114,-0.2277 0.228,-0.5692 0.228,-1.0816 v -6.6034 h -1.2542 c -0.6271,0 -1.0262,0.1139 -1.3112,0.2847 -0.2851,0.1707 -0.3991,0.5123 -0.4561,0.9677 h -0.2851 v -1.9924 h 0.2851 c 0.228,0.2277 0.6841,0.3416 1.3112,0.3416 h 4.5038 c 0.6271,0 1.0831,-0.1139 1.3682,-0.3416 h 0.285 v 1.9924 h -0.171 c -0.114,-0.4554 -0.285,-0.797 -0.5701,-0.9677 -0.342,-0.1708 -0.7411,-0.2277 -1.3112,-0.2277 z m 6.214401,-0.4554 v 0.2277 c -0.3421,0 -0.6272,0.1138 -0.7412,0.2846 -0.114,0.2277 -0.228,0.5692 -0.228,1.0816 v 5.351 c 0,0.5124 0.057,0.8539 0.228,1.0816 0.114,0.1708 0.3991,0.2847 0.7412,0.2847 v 0.2277 h -3.135601 v -0.2277 c 0.3991,0 0.6271,-0.1139 0.7982,-0.2847 0.114,-0.1708 0.228001,-0.5692 0.228001,-1.0816 v -5.351 c 0,-0.5124 -0.057,-0.9108 -0.228001,-1.0816 -0.1141,-0.1708 -0.3991,-0.2846 -0.7982,-0.2846 v -0.2277 z m 6.784,0.4554 h -1.3112 v 6.6034 c 0,0.5123 0.057,0.8539 0.171,1.0246 0.114,0.1708 0.3991,0.2847 0.7411,0.2847 v 0.2277 h -3.0785 v -0.2277 c 0.3991,0 0.6271,-0.1139 0.7982,-0.2847 0.114,-0.2277 0.228,-0.5692 0.228,-1.0816 v -6.6034 h -1.2542 c -0.6271,0 -1.0262,0.1139 -1.3112,0.2847 -0.2851,0.1707 -0.3991,0.5123 -0.4561,0.9677 h -0.2851 v -1.9924 h 0.2851 c 0.228,0.2277 0.6841,0.3416 1.3112,0.3416 h 4.5038 c 0.6271,0 1.0832,-0.1139 1.3682,-0.3416 h 0.2851 v 1.9924 h -0.1711 c -0.114,-0.4554 -0.285,-0.797 -0.5701,-0.9677 -0.285,-0.1708 -0.6841,-0.2277 -1.2542,-0.2277 z m 10.0336,6.3757 v -5.1803 c 0,-0.5123 -0.057,-0.8538 -0.228,-1.0815 -0.114,-0.1708 -0.3991,-0.2847 -0.7411,-0.3416 v -0.2277 h 3.0215 v 0.2277 c -0.3421,0 -0.6271,0.1138 -0.7411,0.2846 -0.1141,0.1708 -0.2281,0.5693 -0.2281,1.0816 v 5.3511 c 0,0.5123 0.057,0.8539 0.2281,1.0816 0.114,0.2277 0.399,0.2846 0.7411,0.2846 v 0.2277 h -2.1094 v -1.1955 c -0.7981,0.9678 -1.7673,1.4232 -2.9075,1.4232 -0.9121,0 -1.6532,-0.2846 -2.1663,-0.797 -0.5131,-0.5692 -0.7982,-1.2523 -0.7982,-2.1632 v -4.2694 c 0,-0.5123 -0.057,-0.8539 -0.228,-1.0816 -0.114,-0.2277 -0.3991,-0.2846 -0.7981,-0.2846 v -0.2277 h 3.3065 v 0.2277 c -0.399,0 -0.6271,0.1138 -0.7981,0.2846 -0.114,0.1708 -0.228,0.5693 -0.228,1.0816 v 4.3833 c 0,0.6831 0.171,1.2524 0.5701,1.6508 0.399,0.3985 0.9121,0.6262 1.5962,0.6262 1.0832,0.057 1.8813,-0.3985 2.5084,-1.3662 z m 9.1217,-6.3757 h -1.3112 v 6.6034 c 0,0.5123 0.057,0.8539 0.171,1.0246 0.114,0.1708 0.3991,0.2847 0.7411,0.2847 v 0.2277 h -3.0785 v -0.2277 c 0.3991,0 0.6271,-0.1139 0.7981,-0.2847 0.1141,-0.2277 0.2281,-0.5692 0.2281,-1.0816 v -6.6034 h -1.2542 c -0.6271,0 -1.0262,0.1139 -1.3113,0.2847 -0.285,0.1707 -0.399,0.5123 -0.456,0.9677 h -0.2851 v -1.9924 h 0.2851 c 0.228,0.2277 0.6841,0.3416 1.3112,0.3416 h 4.5037 c 0.6271,0 1.0832,-0.1139 1.3683,-0.3416 h 0.285 v 1.9924 h -0.171 c -0.114,-0.4554 -0.2851,-0.797 -0.5701,-0.9677 -0.2851,-0.1708 -0.6841,-0.2277 -1.2542,-0.2277 z m 8.6655,2.8463 h 0.2851 v 2.1062 h -0.2851 c -0.114,-0.3415 -0.228,-0.6262 -0.3421,-0.6831 -0.114,-0.1138 -0.399,-0.1138 -0.8551,-0.1138 h -2.1664 v 3.074 c 0,0.2277 0.0571,0.3415 0.1711,0.4554 0.114,0.1138 0.285,0.1138 0.5131,0.1138 h 1.4822 c 0.5131,0 0.9122,-0.0569 1.1402,-0.1138 0.228,-0.057 0.3991,-0.1708 0.5131,-0.3416 0.114,-0.1708 0.285,-0.3985 0.4561,-0.7969 h 0.285 l -0.3991,1.5939 h -6.271 v -0.2277 c 0.3991,0 0.6271,-0.1139 0.7981,-0.2847 0.114,-0.1707 0.171,-0.5692 0.171,-1.0815 v -5.408 c 0,-0.5124 -0.057,-0.9108 -0.228,-1.0816 -0.171,-0.1708 -0.3991,-0.2846 -0.7981,-0.2846 v -0.2277 h 6.214 v 1.4231 h -0.171 c -0.114,-0.3985 -0.228,-0.6831 -0.3991,-0.797 -0.171,-0.1138 -0.5131,-0.2277 -1.0832,-0.2277 h -2.5084 v 3.7002 h 2.3944 c 0.3421,0 0.5701,-0.0569 0.6841,-0.1708 0.2851,-0.1138 0.3421,-0.3415 0.3991,-0.6261 z m 19.3263,-60.2277 v 0.2846 c -0.399,0 -0.6841,0.1139 -0.8551,0.3416 -0.1711,0.2277 -0.2281,0.6261 -0.2281,1.1385 v 5.8064 c 0,0.5693 0.057,0.9678 0.2281,1.1385 0.171,0.2277 0.4561,0.3416 0.8551,0.3416 v 0.2846 h -3.3635 v -0.2846 c 0.399,0 0.6841,-0.1139 0.8551,-0.3416 0.171,-0.2277 0.228,-0.6261 0.228,-1.1385 v -5.8064 c 0,-0.5693 -0.057,-0.9678 -0.228,-1.1955 -0.171,-0.2277 -0.3991,-0.3415 -0.8551,-0.3415 v -0.2847 h 3.3635 z"
       fill="#ffffff"
       id="path462" />
    <path
       d="m 153.43432,47.489278 c -0.9121,-0.1707 -1.7103,-0.6831 -2.3374,-1.537 -0.8551,-1.0815 -1.2542,-2.5047 -1.2542,-4.2694 0,-1.7647 0.3991,-3.1309 1.2542,-4.2125 0.6271,-0.797 1.3683,-1.2524 2.3374,-1.4801 v -0.5123 c -1.3682,0.1707 -2.5654,0.74 -3.5916,1.7077 -1.2542,1.1955 -1.8243,2.6756 -1.8243,4.4403 0,1.7647 0.6271,3.3017 1.8813,4.4971 1.0262,1.0247 2.2234,1.594 3.5916,1.7647 v -0.3985 z m 5.5297,-10.1897 c -1.0261,-0.9677 -2.1663,-1.5939 -3.5916,-1.7647 v 0.5123 c 0.9122,0.1708 1.7103,0.6832 2.3374,1.537 0.8552,1.0816 1.2542,2.5048 1.2542,4.2695 0,1.6508 -0.399,3.0171 -1.2542,4.1556 -0.6271,0.797 -1.3682,1.3093 -2.2804,1.537 v 0.5123 c 1.3683,-0.1708 2.5655,-0.7969 3.5346,-1.7647 1.2546,-1.2524 1.8816,-2.7324 1.8816,-4.4971 0,-1.8217 -0.627,-3.3017 -1.8816,-4.4972 z"
       fill="#ffffff"
       id="path464" />
    <path
       d="m 156.11392,42.195178 v 0.2847 c -0.399,0 -0.6841,0.1138 -0.8551,0.3415 -0.1711,0.2277 -0.2281,0.6262 -0.2281,1.1385 v 5.8065 c 0,0.5692 0.057,0.9677 0.2281,1.1385 0.171,0.2277 0.4561,0.3416 0.8551,0.3416 v 0.2846 h -3.3635 v -0.2846 c 0.399,0 0.6841,-0.1139 0.8551,-0.3416 0.171,-0.2277 0.228,-0.6262 0.228,-1.1385 v -5.8065 c 0,-0.5692 -0.057,-0.9677 -0.228,-1.1954 -0.171,-0.2277 -0.3991,-0.3416 -0.8551,-0.3416 v -0.2846 h 3.3635 z"
       fill="#ffffff"
       id="path466" />
    <path
       d="m 154.40322,55.003578 c -7.2972,0 -13.2832,-5.9203 -13.2832,-13.2638 0,-7.2865 5.929,-13.2637 13.2832,-13.2637 7.2974,0 13.2834,5.9203 13.2834,13.2637 0,7.2866 -5.929,13.2638 -13.2834,13.2638 z m 0,-25.9583 c -7.0122,0 -12.7131,5.6926 -12.7131,12.6945 0,7.0019 5.7009,12.6945 12.7131,12.6945 7.0124,0 12.7134,-5.6926 12.7134,-12.6945 0.057,-7.0019 -5.701,-12.6945 -12.7134,-12.6945 z"
       fill="#ffffff"
       id="path468" />
    <path
       d="m 154.40372,60.354678 c -10.2617,0 -18.6421,-8.3682 -18.6421,-18.6148 0,-10.2467 8.3804,-18.61484 18.6421,-18.61484 10.2619,0 18.6419,8.36814 18.6419,18.61484 0,10.2466 -8.323,18.6148 -18.6419,18.6148 z m 0,-36.71731 c -9.9767,0 -18.129,8.14041 -18.129,18.10251 0,9.962 8.1523,18.1024 18.129,18.1024 9.9769,0 18.1289,-8.1404 18.1289,-18.1024 0,-9.9621 -8.095,-18.10251 -18.1289,-18.10251 z"
       fill="#ffffff"
       id="path470" />
    <path
       d="m 140.49332,39.804378 h -0.114 c 0,-0.1708 -0.057,-0.2847 -0.171,-0.2847 h -0.1141 l -0.9121,0.2277 -0.114,1.0247 0.6271,0.2846 c 0.171,0.057 0.285,0.1139 0.342,0.1139 0.1141,0 0.2281,-0.0569 0.2281,-0.2277 h 0.114 l -0.114,0.8539 h -0.114 c 0,-0.1139 -0.0571,-0.2277 -0.1141,-0.2847 -0.057,-0.0569 -0.171,-0.1707 -0.342,-0.2277 l -2.5655,-1.1954 0.0571,-0.3416 2.8504,-0.6261 c 0.1711,-0.057 0.2851,-0.057 0.3421,-0.1139 0.057,-0.0569 0.114,-0.1708 0.114,-0.2846 h 0.114 z m -1.5963,0.8539 0.1141,-0.9109 -1.4253,0.2847 z m -0.1141,-6.0911 -0.1141,-0.057 0.3991,-0.9108 0.114,0.0569 c -0.057,0.1708 -0.057,0.2847 0,0.3416 0.0571,0.0569 0.1711,0.1708 0.3421,0.2277 l 2.4514,1.0247 -0.057,0.1138 -3.4776,1.0247 2.1094,0.8539 c 0.171,0.0569 0.285,0.0569 0.342,0.0569 0.057,0 0.1711,-0.1138 0.2281,-0.2846 l 0.114,0.0569 -0.3991,0.9108 -0.114,-0.0569 c 0.057,-0.1708 0.057,-0.2846 0,-0.3416 -0.057,-0.0569 -0.171,-0.1707 -0.3421,-0.2277 l -1.7673,-0.74 c -0.171,-0.0569 -0.342,-0.1139 -0.456,-0.0569 -0.1141,0.0569 -0.2281,0.1138 -0.2851,0.2846 l -0.114,-0.0569 0.3421,-0.7401 3.0785,-0.9108 -1.7673,-0.74 c -0.1711,-0.0569 -0.3421,-0.1139 -0.3991,-0.0569 -0.114,0 -0.171,0.0569 -0.228,0.2277 z m 2.6224,-3.9849 -0.285,0.3985 1.9383,1.537 c 0.171,0.1139 0.2851,0.1708 0.3421,0.1708 0.057,0 0.171,-0.0569 0.228,-0.1708 l 0.057,0.0569 -0.6841,0.9109 -0.057,-0.057 c 0.114,-0.1138 0.114,-0.2277 0.114,-0.2846 -0.057,-0.1138 -0.114,-0.1708 -0.285,-0.2846 l -1.9384,-1.537 -0.285,0.3415 c -0.114,0.1708 -0.228,0.3416 -0.228,0.4554 0,0.1139 0.057,0.2277 0.171,0.3416 l -0.057,0.0569 -0.5701,-0.4554 0.057,-0.0569 c 0.114,0 0.228,-0.1139 0.3991,-0.2846 l 1.0261,-1.3093 c 0.1711,-0.1708 0.2281,-0.3416 0.2281,-0.4554 l 0.057,-0.057 0.5701,0.4554 -0.057,0.057 c -0.1711,-0.057 -0.2851,-0.1139 -0.3991,-0.057 -0.114,0 -0.2281,0.1139 -0.3421,0.2277 z m 2.2805,-2.3908 0.057,0.0569 c -0.114,0.1138 -0.171,0.1708 -0.171,0.2846 0,0.1139 0.057,0.2277 0.171,0.3416 l 1.3113,1.537 c 0.114,0.1708 0.228,0.2277 0.342,0.2277 0.114,0 0.171,0 0.2851,-0.1139 l 0.057,0.057 -0.9122,0.74 -0.057,-0.0569 c 0.114,-0.1139 0.171,-0.1708 0.171,-0.2847 0,-0.1138 -0.057,-0.2277 -0.228,-0.3415 l -1.3112,-1.537 c -0.114,-0.1708 -0.2281,-0.2277 -0.3421,-0.2847 -0.057,0 -0.171,0 -0.285,0.1139 l -0.057,-0.0569 z m 3.9333,-2.39096 0.6841,-0.34156 0.057,0.05693 c -0.228,0.11385 -0.285,0.28463 -0.114,0.56926 0,0 0,0.05692 0.057,0.05692 l 1.0262,1.70781 c 0.114,0.1707 0.2281,0.2846 0.2851,0.3415 0.057,0.057 0.171,0.057 0.342,0 l 0.057,0.057 -1.0261,0.5123 -0.0571,-0.0569 c 0.1141,-0.057 0.1711,-0.1708 0.1711,-0.2277 0,-0.057 0,-0.1708 -0.057,-0.2847 0,0 0,-0.0569 -0.057,-0.0569 l -1.0832,-1.7647 0.228,2.9032 -0.057,0.0569 -2.1664,-1.8785 0.7412,1.8785 c 0,0.057 0,0.057 0.057,0.057 0.114,0.2277 0.342,0.3415 0.5701,0.2277 l 0.057,0.0569 -0.9122,0.4554 -0.057,-0.0569 c 0.114,-0.0569 0.171,-0.1708 0.171,-0.2846 0,-0.1139 0,-0.2277 -0.114,-0.4555 l -0.7981,-2.0493 c -0.171,-0.0569 -0.3421,-0.0569 -0.4561,0 l -0.057,-0.0569 0.7411,-0.34157 2.0524,1.82167 z m 3.5348,-1.02467 v 0.11386 c -0.1141,0.05692 -0.2281,0.11385 -0.2281,0.17077 -0.057,0.05693 -0.057,0.22771 0,0.39849 l 0.4561,1.93551 c 0.057,0.1707 0.114,0.2846 0.171,0.3985 0.057,0.0569 0.1711,0.0569 0.2851,0.0569 v 0.1138 l -1.1402,0.2847 v -0.1139 c 0.114,-0.0569 0.228,-0.1138 0.285,-0.1708 0.057,-0.0569 0.057,-0.2277 0,-0.3985 l -0.4561,-1.93544 c -0.057,-0.17077 -0.114,-0.34155 -0.171,-0.39848 -0.057,-0.05692 -0.171,-0.05692 -0.285,-0.05692 v -0.11386 z m 4.4467,-0.39847 v 0.96774 h -0.1141 c -0.057,-0.28463 -0.228,-0.51233 -0.399,-0.62619 -0.171,-0.11385 -0.3991,-0.2277 -0.6841,-0.2277 -0.3421,0 -0.6271,0.11385 -0.8552,0.39848 -0.228,0.28463 -0.285,0.62619 -0.285,1.08159 0,0.45541 0.114,0.8539 0.342,1.13848 0.2281,0.2847 0.5131,0.4555 0.9122,0.3985 0.5131,0 0.8551,-0.2277 1.1402,-0.74001 l 0.114,0.05693 c -0.114,0.28458 -0.285,0.45538 -0.5131,0.62618 -0.228,0.1708 -0.5131,0.2277 -0.7981,0.2277 -0.2851,0 -0.5701,-0.0569 -0.7981,-0.1708 -0.2281,-0.1138 -0.4561,-0.3415 -0.5701,-0.5692 -0.1141,-0.22774 -0.2281,-0.51237 -0.2281,-0.85392 0,-0.51234 0.114,-0.96774 0.4561,-1.3093 0.3421,-0.34156 0.6841,-0.51234 1.1972,-0.51234 0.171,0 0.3421,10e-6 0.6271,0.05693 0.114,0.05693 0.228,0.05693 0.285,0.05693 0.0571,0 0.1141,-0.05693 0.1711,-0.11386 z m 2.3945,2.22013 -0.2281,-0.05693 -0.228,0.8539 c -0.057,0.1708 -0.057,0.3415 0,0.3985 0.057,0.1138 0.114,0.1708 0.228,0.1708 v 0.1138 l -1.1402,-0.2846 v -0.1139 c 0.114,0.0569 0.2281,0 0.2851,-0.0569 0.057,-0.0569 0.114,-0.1708 0.171,-0.3416 l 0.5131,-1.93544 c 0.057,-0.17078 0.057,-0.34156 0.057,-0.39849 -0.057,-0.05692 -0.114,-0.17077 -0.228,-0.17077 v -0.11386 l 1.2542,0.34156 c 0.342,0.05693 0.5701,0.2277 0.6841,0.45541 0.171,0.2277 0.171,0.39848 0.114,0.68311 -0.114,0.39848 -0.3991,0.56926 -0.8552,0.56926 0.0571,0.05693 0.1711,0.17078 0.2281,0.34152 0.057,0.1139 0.114,0.3416 0.228,0.6262 0.114,0.3416 0.1711,0.5124 0.2281,0.6262 0.057,0.1139 0.171,0.1708 0.228,0.2277 v 0.1139 l -0.6271,-0.1708 c -0.114,-0.1708 -0.171,-0.4554 -0.2851,-0.797 -0.114,-0.3985 -0.228,-0.6262 -0.285,-0.74 -0.114,-0.22772 -0.228,-0.28465 -0.342,-0.34157 z m 0.456,-1.537 -0.342,-0.11386 -0.3991,1.42315 0.3991,0.11385 c 0.228,0.05693 0.399,0.05693 0.5701,-0.05692 0.171,-0.11385 0.285,-0.2277 0.342,-0.45541 0.057,-0.2277 0,-0.39848 -0.057,-0.56926 -0.057,-0.17078 -0.228,-0.28463 -0.5131,-0.34155 z m 2.5655,2.33397 c 0.228,-0.3985 0.57,-0.68314 1.026,-0.79699 0.456,-0.11385 0.855,-0.05692 1.311,0.22771 0.399,0.22768 0.685,0.56928 0.799,1.02468 0.114,0.4554 0.057,0.8539 -0.171,1.2524 -0.229,0.3984 -0.571,0.6831 -1.027,0.7969 -0.456,0.1139 -0.912,0.0569 -1.311,-0.2277 -0.399,-0.2277 -0.684,-0.5692 -0.798,-1.0247 -0.171,-0.3984 -0.114,-0.8538 0.171,-1.2523 z m 0.399,0.2846 c -0.228,0.3985 -0.342,0.797 -0.285,1.1385 0.057,0.3416 0.228,0.6262 0.513,0.8539 0.342,0.1708 0.627,0.2277 0.969,0.0569 0.342,-0.1138 0.627,-0.3984 0.855,-0.7969 0.228,-0.3985 0.342,-0.797 0.285,-1.1385 -0.057,-0.3416 -0.228,-0.6262 -0.513,-0.797 -0.342,-0.17078 -0.684,-0.22771 -0.969,-0.11386 -0.342,0.11386 -0.627,0.39846 -0.855,0.79696 z m 3.42,4.611 -1.026,-1.0816 0.057,-0.0569 c 0.114,0.1138 0.171,0.1708 0.285,0.1138 0.114,0 0.228,-0.0569 0.342,-0.2277 l 1.483,-1.3662 c 0.171,-0.1138 0.228,-0.2277 0.228,-0.3415 0,-0.1139 0,-0.1708 -0.114,-0.2847 l 0.057,-0.0569 0.855,0.9108 c 0.228,0.2277 0.399,0.5123 0.399,0.7401 0.057,0.2277 -0.057,0.4554 -0.228,0.6261 -0.228,0.2277 -0.57,0.2277 -0.969,0 0.114,0.2277 0.171,0.4554 0.171,0.6832 0,0.2277 -0.114,0.3984 -0.285,0.5692 -0.171,0.1708 -0.399,0.2277 -0.627,0.1708 -0.171,0 -0.399,-0.1708 -0.628,-0.3985 z m 0.913,-1.3662 -0.228,-0.2277 -0.685,0.6262 c -0.171,0.1707 -0.228,0.2846 -0.285,0.3415 0,0.0569 0,0.1708 0.114,0.2847 l 0.171,0.1707 c 0.115,0.1139 0.286,0.2277 0.457,0.2277 0.171,0 0.342,-0.0569 0.513,-0.2277 0.171,-0.1707 0.285,-0.3415 0.228,-0.5692 0,-0.2277 -0.057,-0.3985 -0.285,-0.6262 z m 0.912,-1.2524 -0.969,0.9108 0.228,0.2277 c 0.171,0.1708 0.342,0.2847 0.513,0.2847 0.171,0 0.342,-0.057 0.513,-0.1708 0.171,-0.1708 0.228,-0.3416 0.228,-0.5124 0,-0.1707 -0.114,-0.3415 -0.285,-0.5123 z m 2.68,3.3017 -0.057,0.057 c -0.058,-0.1139 -0.172,-0.1708 -0.229,-0.1708 -0.114,0 -0.228,0.0569 -0.399,0.1708 l -1.71,1.0815 c -0.171,0.1139 -0.285,0.1708 -0.285,0.2847 -0.057,0.0569 0,0.1708 0.057,0.2846 l -0.057,0.0569 -0.627,-0.9677 0.057,-0.0569 c 0.057,0.1138 0.171,0.1707 0.228,0.1707 0.114,0 0.228,-0.0569 0.399,-0.1707 l 1.71,-1.0816 c 0.171,-0.1139 0.285,-0.2277 0.285,-0.2847 0,-0.0569 0,-0.1707 -0.057,-0.2846 l 0.057,-0.0569 z m -1.597,4.2125 0.114,-0.0569 c 0.057,0.1708 0.171,0.2277 0.285,0.1708 0.057,0 0.057,-0.057 0.114,-0.057 l 0.741,-0.5692 -0.342,-0.9678 h -0.684 c -0.171,0 -0.285,0 -0.342,0.057 -0.114,0.0569 -0.171,0.1707 -0.114,0.2846 l -0.114,0.0569 -0.285,-0.7969 0.114,-0.057 c 0.057,0.1139 0.114,0.1708 0.228,0.2277 0.057,0.057 0.228,0.057 0.456,0.057 l 2.794,-0.1139 0.114,0.2846 -2.281,1.8217 c -0.114,0.1138 -0.228,0.2277 -0.228,0.2846 0,0.0569 0,0.1708 0.057,0.2846 l -0.114,0.057 z m 1.083,-1.4801 0.342,0.8539 1.14,-0.9108 z m 0.399,5.7496 v 0.1139 l -0.741,-0.1139 -0.228,-2.334 h 0.114 c 0,0.1139 0.057,0.2277 0.171,0.2847 0.114,0.0569 0.228,0.0569 0.399,0.0569 l 1.996,-0.2277 c 0.171,0 0.285,-0.0569 0.342,-0.1139 0.057,-0.0569 0.114,-0.1707 0.057,-0.2846 h 0.114 l 0.114,1.1385 h -0.114 c 0,-0.1138 -0.057,-0.2277 -0.171,-0.2846 -0.057,-0.0569 -0.228,-0.0569 -0.399,-0.0569 l -2.167,0.2277 c -0.114,0 -0.171,0.0569 -0.228,0.1138 -0.057,0.057 -0.057,0.1708 -0.057,0.2847 l 0.057,0.6261 c 0,0.1708 0.057,0.3416 0.171,0.3985 0.228,0.057 0.342,0.1139 0.57,0.1708 z m -29.4737,3.4725 c 0.057,0.1708 0,0.3416 -0.114,0.5123 -0.1141,0.1708 -0.2281,0.2847 -0.4561,0.2847 -0.171,0.0569 -0.3421,0 -0.5131,-0.1139 -0.171,-0.1138 -0.285,-0.2277 -0.285,-0.4554 0,-0.2277 0,-0.3415 0.114,-0.5123 0.114,-0.1708 0.228,-0.2847 0.456,-0.2847 0.1711,-0.0569 0.3421,0 0.5131,0.1139 0.1711,0.1139 0.2851,0.2846 0.2851,0.4554 z m 1.4823,5.5788 -0.171,-0.2277 -0.7411,0.5123 c -0.1711,0.1138 -0.2281,0.2277 -0.2851,0.2846 -0.057,0.1139 0,0.1708 0.057,0.2847 l -0.057,0.0569 -0.6841,-0.9678 0.057,-0.0569 c 0.057,0.1139 0.171,0.1708 0.285,0.1708 0.1141,0 0.2281,-0.0569 0.3421,-0.1708 l 1.6533,-1.1954 c 0.171,-0.1139 0.228,-0.2277 0.285,-0.2847 0.057,-0.0569 0,-0.1707 -0.057,-0.2846 l 0.057,-0.0569 0.7412,1.0816 c 0.171,0.2846 0.285,0.5123 0.285,0.7969 0,0.2277 -0.114,0.4554 -0.3421,0.5693 -0.342,0.2277 -0.6841,0.2277 -1.0261,-0.0569 0,0.1138 0,0.2277 -0.057,0.3985 -0.057,0.1138 -0.1141,0.3415 -0.2281,0.6261 -0.114,0.2847 -0.228,0.5124 -0.228,0.6262 0,0.1139 0,0.2277 0.057,0.3416 l -0.057,0.0569 -0.3991,-0.5123 c 0.057,-0.2277 0.171,-0.4554 0.2851,-0.797 0.171,-0.3415 0.228,-0.6262 0.228,-0.74 0.114,-0.1708 0.114,-0.3416 0,-0.4554 z m 1.3682,-0.8539 -0.171,-0.2847 -1.1972,0.8539 0.228,0.3416 c 0.1141,0.1708 0.2851,0.2846 0.5131,0.3415 0.2281,0.057 0.3991,0 0.5701,-0.1707 0.1711,-0.1139 0.2851,-0.2847 0.2851,-0.5124 0,-0.1707 -0.057,-0.3415 -0.2281,-0.5692 z m 2.7366,4.4402 0.057,0.0569 -0.5131,0.6262 -0.057,-0.0569 c 0.057,-0.1139 0.057,-0.2277 0.057,-0.2847 0,-0.0569 -0.114,-0.1138 -0.228,-0.2277 l -0.6271,-0.5123 -0.7411,0.9108 c -0.0571,0.0569 -0.0571,0.1139 -0.0571,0.1708 0,0.0569 0.0571,0.1138 0.1141,0.1708 l 0.456,0.3415 c 0.1711,0.1139 0.2851,0.2277 0.3421,0.2277 0.057,0.0569 0.171,0.0569 0.228,0.0569 0.057,0 0.1711,-0.0569 0.3421,-0.1138 l 0.057,0.0569 -0.5131,0.3985 -1.8243,-1.4801 0.057,-0.0569 c 0.114,0.1139 0.2281,0.1139 0.2851,0.1139 0.057,0 0.171,-0.1139 0.285,-0.2847 l 1.2542,-1.537 c 0.114,-0.1708 0.1711,-0.2846 0.1711,-0.3415 0,-0.1139 -0.0571,-0.1708 -0.1711,-0.2847 l 0.057,-0.0569 1.8243,1.4801 -0.342,0.3985 -0.057,-0.057 c 0.057,-0.1138 0.114,-0.2277 0.057,-0.3415 0,-0.0569 -0.114,-0.1708 -0.2851,-0.2846 l -0.7411,-0.5693 -0.8551,1.0816 0.6841,0.5692 c 0.114,0.057 0.171,0.1139 0.228,0.1139 0.2851,-0.1708 0.3991,-0.1708 0.4561,-0.2846 z m 3.6484,0.6262 0.057,0.0569 -0.342,0.6831 -0.114,-0.0569 c 0.057,-0.1708 0.057,-0.3985 0,-0.5124 -0.057,-0.1708 -0.1711,-0.2846 -0.3421,-0.3985 -0.171,-0.0569 -0.285,-0.1138 -0.4561,-0.0569 -0.114,0.0569 -0.228,0.1139 -0.285,0.2277 -0.057,0.1139 -0.057,0.2277 -0.057,0.3985 0.057,0.1139 0.114,0.3416 0.342,0.6262 0.2281,0.3415 0.3421,0.5693 0.3991,0.797 0.057,0.1707 0,0.3415 -0.057,0.5692 -0.114,0.2277 -0.2851,0.3985 -0.5131,0.4554 -0.228,0.057 -0.4561,0.0569 -0.6841,-0.0569 -0.114,-0.0569 -0.2851,-0.1708 -0.4561,-0.3416 l -0.114,-0.1138 c -0.057,0 -0.114,0 -0.171,0.0569 l -0.1141,-0.0569 0.3991,-0.797 0.114,0.057 c -0.114,0.2277 -0.114,0.3984 -0.057,0.6261 0.057,0.1708 0.2281,0.3416 0.3991,0.4554 0.171,0.057 0.342,0.1139 0.5131,0.057 0.171,-0.057 0.285,-0.1708 0.342,-0.2847 0.057,-0.1138 0.057,-0.2277 0.057,-0.3984 -0.057,-0.1708 -0.171,-0.3985 -0.342,-0.6832 -0.171,-0.2277 -0.2851,-0.4554 -0.2851,-0.5692 -0.057,-0.1139 -0.057,-0.2277 -0.057,-0.3416 0,-0.1138 0.057,-0.2277 0.114,-0.3415 0.1141,-0.2277 0.2851,-0.3416 0.4561,-0.4554 0.2281,-0.057 0.4561,-0.057 0.6841,0.0569 0.1141,0.0569 0.2851,0.1708 0.3991,0.2846 0.057,0.057 0.114,0.1139 0.114,0.1139 h 0.057 z m 3.0216,2.1632 h 0.114 l -0.171,0.74 h -0.114 c 0,-0.1138 -0.057,-0.2277 -0.057,-0.2846 -0.057,-0.0569 -0.1711,-0.0569 -0.2851,-0.1139 l -0.7981,-0.1708 -0.228,1.1386 v 0.1707 c 0,0.057 0.057,0.057 0.171,0.1139 l 0.5701,0.1139 c 0.171,0.0569 0.342,0.0569 0.399,0.0569 0.0571,0 0.1711,-0.0569 0.2281,-0.0569 0.057,-0.057 0.114,-0.1139 0.228,-0.2278 h 0.114 l -0.285,0.5693 -2.2804,-0.4554 v -0.1139 c 0.114,0.057 0.228,0 0.2851,-0.0569 0.057,-0.0569 0.114,-0.1708 0.171,-0.3985 l 0.3991,-1.9924 c 0.057,-0.1707 0.057,-0.3415 0,-0.3985 -0.0571,-0.0569 -0.1141,-0.1138 -0.2851,-0.1707 v -0.1139 l 2.2804,0.4554 -0.114,0.5124 h -0.057 c 0,-0.1708 -1e-4,-0.2847 -0.0571,-0.3416 -0.057,-0.0569 -0.171,-0.1139 -0.399,-0.1708 l -0.9122,-0.1708 -0.285,1.3663 0.8551,0.1707 h 0.2851 c 0.114,0 0.171,-0.0569 0.228,-0.1707 z m 3.8765,2.1062 v -0.1138 c 0.171,0 0.285,-0.0569 0.285,-0.2277 0,-0.0569 0,-0.0569 -0.057,-0.1139 l -0.3421,-0.8539 -1.0261,0.057 -0.1711,0.6831 c -0.057,0.1708 -0.057,0.2846 -0.057,0.3415 0,0.1139 0.114,0.2277 0.2851,0.1708 v 0.1139 l -0.8552,0.0569 v -0.1139 c 0.1141,0 0.2281,-0.0569 0.2851,-0.1138 0.057,-0.0569 0.114,-0.2277 0.171,-0.3985 l 0.7411,-2.7325 h 0.3421 l 1.0832,2.7325 c 0.057,0.1708 0.114,0.2846 0.171,0.2846 0.057,0.057 0.171,0.057 0.285,0.057 v 0.1138 z m -1.1402,-1.4231 0.9121,-0.0569 -0.5131,-1.3093 z m 4.6751,-0.797 -0.2281,0.1138 0.2851,0.8539 c 0.057,0.1708 0.114,0.2847 0.228,0.3416 0.057,0.0569 0.171,0.0569 0.2851,0 l 0.057,0.1138 -1.0832,0.3985 -0.057,-0.1138 c 0.114,-0.057 0.228,-0.1139 0.228,-0.2277 0,-0.1139 0,-0.2277 -0.057,-0.3985 l -0.6841,-1.8786 c -0.057,-0.1708 -0.114,-0.2846 -0.2281,-0.3415 -0.057,-0.057 -0.171,-0.057 -0.285,0 l -0.057,-0.1139 1.2542,-0.4554 c 0.285,-0.1139 0.5701,-0.1139 0.7981,-0.0569 0.2282,0.0569 0.3992,0.2277 0.4562,0.4554 0.114,0.3985 0,0.6831 -0.3421,0.9677 0.1141,0 0.2281,0.0569 0.3421,0.1708 0.114,0.0569 0.285,0.2277 0.513,0.3985 0.228,0.2277 0.456,0.3415 0.57,0.3985 0.114,0.0569 0.228,0.0569 0.342,0.0569 l 0.057,0.1138 -0.627,0.2277 c -0.171,-0.1138 -0.399,-0.2846 -0.684,-0.5123 -0.285,-0.2277 -0.5131,-0.3985 -0.6842,-0.4554 -0.171,-0.1138 -0.285,-0.1138 -0.399,-0.0569 z m -0.5131,-1.537 -0.3421,0.1138 0.5131,1.3663 0.3991,-0.1139 c 0.228,-0.0569 0.399,-0.2277 0.456,-0.3985 0.057,-0.1708 0.057,-0.3415 0,-0.5692 -0.057,-0.2277 -0.228,-0.3416 -0.399,-0.3985 -0.1711,-0.1139 -0.3991,-0.1139 -0.6271,0 z m 5.0173,-3.074 0.57,0.7969 -0.057,0.057 c -0.228,-0.1708 -0.456,-0.2847 -0.684,-0.2847 -0.228,0 -0.457,0.057 -0.685,0.2277 -0.285,0.2277 -0.456,0.5124 -0.456,0.8539 0,0.3416 0.114,0.6831 0.342,1.0247 0.285,0.3985 0.628,0.6262 0.97,0.74 0.342,0.1139 0.684,0.057 0.969,-0.1707 0.399,-0.2847 0.57,-0.7401 0.456,-1.2524 h 0.114 c 0.057,0.2846 0.057,0.5123 -0.057,0.797 -0.114,0.2846 -0.285,0.5123 -0.513,0.6831 -0.228,0.1707 -0.513,0.2846 -0.798,0.3415 -0.285,0.0569 -0.57,0 -0.799,-0.1138 -0.228,-0.1139 -0.456,-0.2847 -0.684,-0.5693 -0.285,-0.3985 -0.456,-0.8539 -0.399,-1.3093 0.057,-0.4554 0.285,-0.8539 0.684,-1.1385 0.114,-0.1139 0.285,-0.1708 0.571,-0.2846 0.114,-0.057 0.228,-0.1139 0.285,-0.1139 0.057,-0.0569 0.114,-0.1138 0.057,-0.1708 z m 4.503,-1.3093 -0.741,-0.5693 -1.026,1.4232 0.741,0.5692 c 0.171,0.1139 0.285,0.1708 0.399,0.1708 0.114,0 0.171,-0.0569 0.285,-0.1708 l 0.057,0.057 -0.684,0.9677 -0.057,-0.0569 c 0.057,-0.1139 0.114,-0.2277 0.057,-0.2846 -0.057,-0.1139 -0.114,-0.1708 -0.285,-0.2847 l -1.653,-1.1954 c -0.171,-0.1139 -0.285,-0.1708 -0.399,-0.1708 -0.114,0 -0.171,0.0569 -0.285,0.1708 l -0.057,-0.0569 0.684,-0.9678 0.057,0.0569 c -0.057,0.1139 -0.114,0.2277 -0.057,0.2847 0.057,0.1138 0.114,0.1707 0.285,0.2846 l 0.741,0.5693 1.026,-1.4232 -0.741,-0.5692 c -0.171,-0.1139 -0.285,-0.1708 -0.399,-0.1708 -0.114,0 -0.171,0.0569 -0.228,0.1708 l -0.057,-0.057 0.684,-0.9108 0.057,0.0569 c -0.057,0.1139 -0.114,0.2277 -0.057,0.2847 0.057,0.1138 0.114,0.1707 0.285,0.2846 l 1.653,1.1954 c 0.171,0.1139 0.285,0.1708 0.399,0.1708 0.114,0 0.171,-0.0569 0.285,-0.1708 l 0.057,0.057 -0.684,0.9108 -0.057,-0.0569 c 0.057,-0.1139 0.114,-0.2277 0.057,-0.2847 -0.057,-0.0569 -0.171,-0.1708 -0.342,-0.2846 z m 0.627,-5.8065 c 0.057,-0.1707 0.171,-0.3415 0.285,-0.4554 0.114,-0.1138 0.342,-0.1138 0.513,-0.1138 0.172,0.0569 0.343,0.1708 0.457,0.2846 0.114,0.1708 0.114,0.3416 0.114,0.5123 -0.057,0.1708 -0.171,0.3416 -0.285,0.4555 -0.171,0.1138 -0.343,0.1138 -0.514,0.1138 -0.171,-0.0569 -0.342,-0.1708 -0.456,-0.2846 -0.114,-0.1708 -0.171,-0.3416 -0.114,-0.5124 z m -10.8884,-14.0037 c 0,0.3984 -0.3421,0.74 -0.7411,0.74 -0.3991,0 -0.7412,-0.3416 -0.7412,-0.74 0,-0.3985 0.3421,-0.7401 0.7412,-0.7401 0.399,0 0.7411,0.3416 0.7411,0.7401 z m -6.9553,0.9677 c 0,0.5693 -0.4561,1.0247 -1.0262,1.0247 -0.5701,0 -1.0261,-0.4554 -1.0261,-1.0247 0,-0.5693 0.456,-1.0247 1.0261,-1.0247 0.5701,0.057 1.0262,0.5124 1.0262,1.0247 z m -2.7364,5.0095 c 0,0.4554 -0.342,0.7969 -0.7981,0.7969 -0.4561,0 -0.7981,-0.3415 -0.7981,-0.7969 0,-0.4554 0.342,-0.797 0.7981,-0.797 0.3991,-0.0569 0.7981,0.3416 0.7981,0.797 z m -0.7983,-3.3587 c 0,0.4554 -0.342,0.797 -0.7981,0.797 -0.4561,0 -0.7982,-0.3416 -0.7982,-0.797 0,-0.4554 0.3421,-0.7969 0.7982,-0.7969 0.4561,0 0.7981,0.3415 0.7981,0.7969 z m -3.1924,7.1158 c 0,0.4554 -0.342,0.797 -0.7981,0.797 -0.4561,0 -0.7981,-0.3416 -0.7981,-0.797 0,-0.4554 0.342,-0.7969 0.7981,-0.7969 0.4561,0 0.7981,0.3984 0.7981,0.7969 z m 18.9268,-6.0342 c 0,0.5124 -0.399,0.8539 -0.855,0.8539 -0.456,0 -0.855,-0.3985 -0.855,-0.8539 0,-0.5123 0.399,-0.8539 0.855,-0.8539 0.456,0 0.855,0.3416 0.855,0.8539 z m -12.9409,16.5086 c 0,0.5692 -0.4561,1.0246 -1.0262,1.0246 -0.5701,0 -1.0262,-0.4554 -1.0262,-1.0246 0,-0.5693 0.4561,-1.0247 1.0262,-1.0247 0.5701,0.0569 1.0262,0.5123 1.0262,1.0247 z m 15.7349,-8.1405 c 0,0.5693 -0.456,1.0247 -1.026,1.0247 -0.57,0 -1.026,-0.4554 -1.026,-1.0247 0,-0.5692 0.456,-1.0246 1.026,-1.0246 0.57,0 1.026,0.4554 1.026,1.0246 z m -17.958,3.074 c 0,0.6831 -0.5701,1.2524 -1.2542,1.2524 -0.6842,0 -1.2543,-0.5693 -1.2543,-1.2524 0,-0.6831 0.5701,-1.2523 1.2543,-1.2523 0.7411,0 1.2542,0.5692 1.2542,1.2523 z m 14.651,-0.3984 c 0,0.6831 -0.57,1.2524 -1.254,1.2524 -0.684,0 -1.254,-0.5693 -1.254,-1.2524 0,-0.6831 0.57,-1.2524 1.254,-1.2524 0.741,0 1.254,0.5124 1.254,1.2524 z m 0.912,-7.1158 c 0,0.6831 -0.57,1.2524 -1.254,1.2524 -0.684,0 -1.254,-0.5693 -1.254,-1.2524 0,-0.6831 0.57,-1.2524 1.254,-1.2524 0.684,0 1.254,0.5693 1.254,1.2524 z m -2.793,-2.3339 c 0,0.4554 -0.342,0.7969 -0.798,0.7969 -0.4563,0 -0.7983,-0.3415 -0.7983,-0.7969 0,-0.4554 0.342,-0.797 0.7983,-0.797 0.456,0 0.798,0.3416 0.798,0.797 z m 2.223,6.0341 c 0,0.3985 -0.285,0.6831 -0.684,0.6831 -0.399,0 -0.684,-0.2846 -0.684,-0.6831 0,-0.3985 0.285,-0.6831 0.684,-0.6831 0.399,0 0.684,0.2846 0.684,0.6831 z m -13.3398,-7.5142 c 0,0.3415 -0.285,0.5692 -0.5701,0.5692 -0.342,0 -0.5701,-0.2277 -0.5701,-0.5692 0,-0.3416 0.2281,-0.5693 0.5701,-0.5693 0.2851,0 0.5701,0.2847 0.5701,0.5693 z m 15.4498,11.2144 c 0,0.3985 -0.342,0.74 -0.742,0.74 -0.399,0 -0.798,-0.2846 -0.798,-0.74 0,-0.3985 0.342,-0.74 0.741,-0.74 0.4,0 0.799,0.3415 0.799,0.74 z m -12.4852,6.4895 c 0,0.3416 -0.285,0.6262 -0.6271,0.6262 -0.342,0 -0.6271,-0.2846 -0.6271,-0.6262 0,-0.3415 0.2851,-0.6261 0.6271,-0.6261 0.3421,0 0.6271,0.2277 0.6271,0.6261 z m 8.7792,-2.1062 c 0,0.6262 -0.513,1.1385 -1.14,1.1385 -0.6274,0 -1.1405,-0.5123 -1.1405,-1.1385 0,-0.6262 0.5131,-1.1385 1.1405,-1.1385 0.627,0 1.14,0.5123 1.14,1.1385 z m -14.9364,-1.537 c 0,0.3985 -0.342,0.7401 -0.7411,0.7401 -0.3991,0 -0.7411,-0.3416 -0.7411,-0.7401 0,-0.3985 0.342,-0.74 0.7411,-0.74 0.3991,0 0.7411,0.3415 0.7411,0.74 z m -1.4253,-10.8729 c 0,0.5693 -0.456,0.9678 -0.9691,0.9678 -0.5131,0 -0.9692,-0.4554 -0.9692,-0.9678 0,-0.5123 0.4561,-0.9677 0.9692,-0.9677 0.5701,0 0.9691,0.4554 0.9691,0.9677 z m -0.5132,7.6281 c 0,0.3985 -0.342,0.74 -0.7411,0.74 -0.3991,0 -0.7411,-0.3415 -0.7411,-0.74 0,-0.3985 0.342,-0.74 0.7411,-0.74 0.3991,0 0.7411,0.3415 0.7411,0.74 z m 2.1663,-2.8463 c 0,0.5123 -0.3991,0.9108 -0.9121,0.9108 -0.5131,0 -0.9122,-0.3985 -0.9122,-0.9108 0,-0.5123 0.3991,-0.9108 0.9122,-0.9108 0.513,0.0569 0.9121,0.4554 0.9121,0.9108 z m 10.2617,-8.5389 c 0,0.3416 -0.2851,0.5693 -0.5701,0.5693 -0.285,0 -0.5701,-0.2847 -0.5701,-0.5693 0,-0.3415 0.2851,-0.5692 0.5701,-0.5692 0.285,0 0.5701,0.2846 0.5701,0.5692 z m -3.0781,-3.7571 c 0,0.3416 -0.2851,0.5693 -0.5701,0.5693 -0.2851,0 -0.5701,-0.2846 -0.5701,-0.5693 0,-0.3415 0.285,-0.5692 0.5701,-0.5692 0.285,0 0.5701,0.2846 0.5701,0.5692 z m 12.029,9.7913 c 0,0.3415 -0.285,0.5693 -0.57,0.5693 -0.285,0 -0.57,-0.2847 -0.57,-0.5693 0,-0.3416 0.285,-0.5693 0.57,-0.5693 0.285,0 0.57,0.2847 0.57,0.5693 z m -6.8413,-6.148 c 0,0.2277 -0.171,0.3985 -0.3991,0.3985 -0.228,0 -0.399,-0.1708 -0.399,-0.3985 0,-0.2277 0.171,-0.3985 0.399,-0.3985 0.2281,0 0.3991,0.1708 0.3991,0.3985 z m -6.7271,0 c 0,0.2277 -0.171,0.3985 -0.399,0.3985 -0.228,0 -0.3991,-0.1708 -0.3991,-0.3985 0,-0.2277 0.1711,-0.3985 0.3991,-0.3985 0.228,0 0.399,0.1708 0.399,0.3985 z m 12.3714,2.8463 c 0,0.2277 -0.171,0.3985 -0.399,0.3985 -0.228,0 -0.399,-0.1708 -0.399,-0.3985 0,-0.2277 0.171,-0.3985 0.399,-0.3985 0.228,0 0.399,0.1708 0.399,0.3985 z m -21.3788,6.3757 c 0,0.2277 -0.171,0.3984 -0.3991,0.3984 -0.228,0 -0.456,-0.1138 -0.456,-0.3984 0,-0.2277 0.171,-0.3985 0.399,-0.3985 0.2281,0 0.4561,0.1708 0.4561,0.3985 z m 6.5558,4.9525 c 0,0.3985 -0.342,0.7401 -0.7411,0.7401 -0.3991,0 -0.7411,-0.3416 -0.7411,-0.7401 0,-0.3984 0.342,-0.74 0.7411,-0.74 0.3991,0.0569 0.7411,0.3416 0.7411,0.74 z m 10.661,-15.5977 c 0,0.3416 -0.285,0.5693 -0.57,0.5693 -0.3423,0 -0.5703,-0.2846 -0.5703,-0.5693 0,-0.3415 0.2851,-0.5692 0.5703,-0.5692 0.285,0 0.57,0.2277 0.57,0.5692 z m -1.0831,15.2562 c 0,0.3985 -0.285,0.6831 -0.6841,0.6831 -0.3991,0 -0.6841,-0.2846 -0.6841,-0.6831 0,-0.3985 0.285,-0.6831 0.6841,-0.6831 0.3421,0 0.6841,0.2846 0.6841,0.6831 z m -0.8555,4.2695 c 0,0.3415 -0.285,0.5692 -0.5701,0.5692 -0.342,0 -0.5701,-0.2846 -0.5701,-0.5692 0,-0.3416 0.2851,-0.5693 0.5701,-0.5693 0.2851,0 0.5701,0.2846 0.5701,0.5693 z m -3.1921,0.7969 c 0,0.2277 -0.1711,0.3985 -0.3991,0.3985 -0.228,0 -0.3991,-0.1708 -0.3991,-0.3985 0,-0.2277 0.1711,-0.3985 0.3991,-0.3985 0.228,0 0.3991,0.1708 0.3991,0.3985 z m -9.4639,-17.0778 c 0,0.2277 -0.171,0.3985 -0.3991,0.3985 -0.228,0 -0.399,-0.1708 -0.399,-0.3985 0,-0.2277 0.171,-0.3984 0.399,-0.3984 0.2281,0 0.3991,0.1707 0.3991,0.3984 z m 11.1738,14.2315 c 0,0.2277 -0.171,0.3985 -0.399,0.3985 -0.2281,0 -0.3991,-0.1708 -0.3991,-0.3985 0,-0.2277 0.171,-0.3985 0.3991,-0.3985 0.228,0 0.399,0.1708 0.399,0.3985 z m 5.8718,-1.6508 c 0,0.2277 -0.171,0.3984 -0.399,0.3984 -0.228,0 -0.399,-0.1707 -0.399,-0.3984 0,-0.2277 0.171,-0.3985 0.399,-0.3985 0.228,0 0.399,0.1708 0.399,0.3985 z m -11.0593,1.1954 c 0,0.2277 -0.171,0.3985 -0.399,0.3985 -0.2281,0 -0.3991,-0.1708 -0.3991,-0.3985 0,-0.2277 0.171,-0.3985 0.3991,-0.3985 0.228,-0.0569 0.399,0.1708 0.399,0.3985 z m -5.1313,-9.7913 c 0,0.2277 -0.1711,0.3985 -0.3991,0.3985 -0.228,0 -0.3991,-0.1708 -0.3991,-0.3985 0,-0.2277 0.1711,-0.3984 0.3991,-0.3984 0.228,0 0.3991,0.1707 0.3991,0.3984 z"
       fill="#ffffff"
       id="path472" />
  </g>
</svg>
